<?xml version="1.0" encoding="utf-8"?>
<!-- Generator: Adobe Illustrator 26.4.1, SVG Export Plug-In . SVG Version: 6.00 Build 0)  -->
<svg version="1.1" id="Layer_1" xmlns="http://www.w3.org/2000/svg" xmlns:xlink="http://www.w3.org/1999/xlink" x="0px" y="0px"
	 viewBox="0 0 300 300" style="enable-background:new 0 0 300 300;" xml:space="preserve">
<g>
	<g>
		<circle style="fill:#FCDB38;" cx="150" cy="150" r="133"/>
		<path d="M150,32c31.5189,0,61.1513,12.2741,83.4386,34.5614C255.7259,88.8487,268,118.4811,268,150
			s-12.2741,61.1513-34.5614,83.4386C211.1513,255.7259,181.5189,268,150,268s-61.1513-12.2741-83.4386-34.5614
			C44.2741,211.1513,32,181.5189,32,150s12.2741-61.1513,34.5614-83.4386C88.8487,44.2741,118.4811,32,150,32 M150,2
			C68.2619,2,2,68.2619,2,150s66.2619,148,148,148s148-66.2619,148-148S231.7381,2,150,2L150,2z"/>
	</g>
	<g>
		<g>
			<path d="M191.1906,86.6179c-6.7049,0-12.1404,10.6768-12.1404,23.8473s5.4355,23.8473,12.1404,23.8473
				c6.705,0,12.1404-10.6768,12.1404-23.8473S197.8956,86.6179,191.1906,86.6179L191.1906,86.6179z"/>
		</g>
		<g>
			<path d="M108.8093,86.6179c-6.7049,0-12.1404,10.6768-12.1404,23.8473s5.4355,23.8473,12.1404,23.8473
				c6.705,0,12.1404-10.6768,12.1404-23.8473S115.5143,86.6179,108.8093,86.6179L108.8093,86.6179z"/>
		</g>
	</g>
	<path style="fill:none;stroke:#000000;stroke-width:15;stroke-miterlimit:10;" d="M72.8472,157.2244
		c13.5602,29.9259,40.213,62.6526,80.4259,62.6526s67.3333-39.7405,75.75-58.4442"/>
	<g>
		<path style="fill:none;stroke:#000000;stroke-width:15;stroke-miterlimit:10;" d="M220.1389,138.0531
			c2.8056,13.0926,2.8056,31.7963,30.8611,27.1204"/>
		<path style="fill:none;stroke:#000000;stroke-width:15;stroke-miterlimit:10;" d="M79.8611,138.0531
			C77.0556,151.1457,77.0556,169.8494,49,165.1734"/>
	</g>
	<g>
		<path style="fill:#FFFFFF;" d="M61.5302,98.5446c6.5644-26.1634,32.509-47.2674,59.357-49.064
			c3.8848-0.2643,7.837,0.0809,11.5826,0.9748C104.1119,59.2773,81.5234,77.025,61.5302,98.5446L61.5302,98.5446z"/>
	</g>
	<g>
		<path style="fill:#FFFFFF;" d="M238.4698,200.4554c-6.5644,26.1634-32.509,47.2674-59.357,49.064
			c-3.8848,0.2643-7.837-0.0809-11.5826-0.9748C195.8881,239.7227,218.4766,221.975,238.4698,200.4554L238.4698,200.4554z"/>
	</g>
</g>
</svg>
