<?xml version="1.0" encoding="utf-8"?>
<!-- Generator: Adobe Illustrator 26.5.1, SVG Export Plug-In . SVG Version: 6.00 Build 0)  -->
<svg version="1.1" id="Layer_1" xmlns="http://www.w3.org/2000/svg" xmlns:xlink="http://www.w3.org/1999/xlink" x="0px" y="0px"
	 viewBox="0 0 383.6953 228.5972" style="enable-background:new 0 0 383.6953 228.5972;" xml:space="preserve">
<g>
	<g>
		<path style="fill:#E24747;" d="M31.5733,200.3118c24.4135,0,14.6481-51.6197,37.8408-51.6197
			c18.3101,0,18.4462-56.071,6.1714-43.7285c-19.5988,22.1079-41.5709,7.4598-58.6603,31.8733S9.6012,197.8705,31.5733,200.3118z"/>
		<path style="fill:#441818;" d="M31.5732,206.3115l-0.6626-0.0371c-10.3018-1.1445-19.1318-8.2607-24.2256-19.5254
			c-7.5176-16.623-5.3774-38.0635,5.3247-53.3525c10.2144-14.5918,22.4097-17.1816,33.1689-19.4663
			c9.5449-2.0269,17.7881-3.7773,25.917-12.9468l0.2354-0.251c5.3901-5.4185,10.3887-3.2061,11.7925-2.3989
			c3.9966,2.2979,6.3013,7.7627,6.8491,16.2437c0.4307,6.6641-0.3066,14.1729-2.0229,20.6016
			c-4.5327,16.9785-13.5586,19.5137-18.5356,19.5137c-5.9077,0-8.5342,6.1572-12.5376,20.8867
			C53.1548,189.2715,48.5234,206.3115,31.5732,206.3115z M77.5928,111.564c-10.0225,9.8794-20.5493,12.1147-29.9214,14.104
			c-10.2402,2.1748-18.3286,3.8926-25.8306,14.6094c-9.6533,13.79-9.0762,30.7939-4.2222,41.5273
			c1.915,4.2344,6.2983,11.4297,14.2769,12.502c6.4658-0.2061,9.2749-6.6943,13.4009-21.875
			c3.6011-13.249,8.083-29.7393,24.1177-29.7393c2.082,0,3.8496-2.8672,4.7178-4.5762
			C78.2764,129.958,78.6704,117.6943,77.5928,111.564z"/>
	</g>
	<g>
		<path style="fill:#E24747;" d="M368.4544,148.5c0,34.8623-7.2996,53.0259-21.9477,53.0259s-17.0894-14.6481-26.8548-36.6202
			c-9.4721-21.3129-30.4435-19.6528-48.5098-7.4949c-15.9176,37.7188-53.2453,64.1831-96.7502,64.1831
			c-57.9819,0-104.9778-46.9959-104.9778-104.9778S116.41,11.6382,174.392,11.6382c50.5602,0,92.7711,35.7413,102.732,83.3231
			c0,0,0,0,0.0244,0.0244c4.5161,5.0779,11.8402,11.3277,20.5315,11.3277C312.3279,106.3135,368.4544,113.6375,368.4544,148.5z"/>
		<path style="fill:#441818;" d="M174.3921,227.5938c-61.1934,0-110.978-49.7842-110.978-110.9775s49.7847-110.978,110.978-110.978
			c25.6294,0,50.6304,8.9434,70.3989,25.1821c19.0635,15.6592,32.458,37.3662,37.8496,61.2739
			c3.3193,3.4824,8.9531,8.2192,15.0391,8.2192c16.2168,0,76.7744,8.1782,76.7744,48.1865c0,39.167-9.4023,59.0264-27.9473,59.0264
			c-15.8574,0-20.9658-12.5771-27.4326-28.5c-1.5029-3.7012-3.0576-7.5273-4.9053-11.6846
			c-2.8828-6.4873-7.0615-10.5576-12.4189-12.0986c-7.0518-2.0283-16.3857,0.2314-25.8145,6.2031
			C258.1641,201.6914,218.5098,227.5938,174.3921,227.5938z M174.3921,17.6382c-54.5767,0-98.978,44.4014-98.978,98.978
			c0,54.5762,44.4014,98.9775,98.978,98.9775c39.9019,0,75.7085-23.7539,91.2222-60.5156l0.6953-1.6465l1.4834-0.998
			c13.0537-8.7852,26.292-11.8779,37.2744-8.7236c8.7988,2.5312,15.7383,9.0176,20.0674,18.7588
			c1.9268,4.334,3.5898,8.4297,5.0576,12.042c6.3418,15.6152,8.9121,21.0156,16.3145,21.0156
			c13.875,0,15.9473-29.4639,15.9473-47.0264c0-12.2119-8.7725-21.8262-26.0752-28.5771
			c-14.3096-5.583-30.9834-7.6094-38.6992-7.6094c-10.79,0-19.4746-7.1484-24.8955-13.2061l-1.1426-1.1426l-0.3906-1.7739
			C261.7227,50.6743,220.9873,17.6382,174.3921,17.6382z"/>
	</g>
	<g>
		<path style="fill:#F7D5D5;" d="M87.0952,15.9268c-7.4831,8.9797-4.4899,32.9257,4.4899,32.9257s14.1891-5.9066,13.081-12.6813
			S88.5918,32.3896,87.0952,15.9268z"/>
		<path style="fill:#441818;" d="M87.0952,15.9268c1.4966,16.4628,16.4628,13.4696,17.5709,20.2443
			c1.1081,6.7747-4.1013,12.6813-13.081,12.6813S79.612,24.9065,87.0952,15.9268 M87.0965,3.9263
			c-3.5019,0-6.901,1.5355-9.22,4.3183c-8.5668,10.2801-8.6962,29.196-3.4423,40.4134
			c5.1551,11.0063,13.7114,12.1945,17.1508,12.1945c8.1779,0,15.276-3.053,19.9866-8.5967
			c4.202-4.9451,6.0015-11.5137,4.937-18.0216c-1.4544-8.8924-8.7773-12.2894-12.7114-14.1144
			c-4.0375-1.873-4.4596-2.0688-4.7514-5.2794c-0.4394-4.8336-3.7473-8.9266-8.3811-10.3704
			C89.4894,4.1038,88.2867,3.9263,87.0965,3.9263L87.0965,3.9263z"/>
	</g>
	<circle style="fill:#EA6C6C;" cx="173.1713" cy="117.8367" r="80.5644"/>
	<g>
		<path style="fill:#F7D5D5;" d="M258.6304,18.3681c8.5928,10.3114,5.1557,37.8084-5.1557,37.8084
			c-10.3114,0-16.2933-6.7825-15.0209-14.5619C239.7262,33.8352,256.9118,37.2723,258.6304,18.3681z"/>
		<path style="fill:#441818;" d="M258.6304,18.3681c8.5928,10.3114,5.1557,37.8084-5.1557,37.8084
			c-10.3114,0-16.2933-6.7825-15.0209-14.5619C239.7262,33.8352,256.9118,37.2723,258.6304,18.3681 M258.6291,6.3676
			c-1.1905,0-2.3925,0.1775-3.5683,0.5438c-4.6338,1.4438-7.9417,5.5367-8.3811,10.3704c-0.428,4.7083-1.7099,5.303-6.4795,7.5155
			c-4.2186,1.957-12.0711,5.5996-13.5891,14.8804c-1.1378,6.9567,0.7826,13.9747,5.269,19.2545
			c5.0655,5.9613,12.7346,9.2444,21.5945,9.2444c7.6287,0,14.2196-4.7304,18.0826-12.9781
			c5.8013-12.3859,5.6956-33.2278-3.7083-44.5125C265.5303,7.9033,262.1307,6.3676,258.6291,6.3676L258.6291,6.3676z"/>
	</g>
	<ellipse style="fill:#441818;" cx="114.579" cy="98.3059" rx="4.8827" ry="9.7654"/>
	<ellipse style="fill:#441818;" cx="185.378" cy="98.3059" rx="4.8827" ry="9.7654"/>
	<g>
		<path style="fill:#F7D5D5;" d="M95.0482,115.3954c26.8548,14.6481,58.5923,34.1788,114.7432,7.324
			C178.054,166.6636,126.7857,181.3117,95.0482,115.3954z"/>
		<path style="fill:#441818;" d="M150.417,166.3037c-1.543,0-3.0811-0.0674-4.6162-0.2041
			c-15.7246-1.3926-38.2319-10.8691-56.1587-48.1016c-1.1299-2.3477-0.6162-5.1558,1.2725-6.9512s4.7207-2.1646,7.0068-0.9189
			l2.8989,1.5869c25.7837,14.1377,55.0059,30.1631,106.3818,5.5918c2.4746-1.1807,5.4365-0.5391,7.1943,1.5674
			c1.7578,2.1055,1.8643,5.1348,0.2588,7.3584C196.0977,151.9277,172.9263,166.3037,150.417,166.3037z M110.8867,130.543
			c10.4116,14.3486,22.6328,22.4219,35.9731,23.6035c13.5723,1.208,28.3159-4.8818,41.7944-16.7812
			C155.0991,147.251,130.835,140.1309,110.8867,130.543z"/>
	</g>
	<path style="fill:#441818;" d="M170.729,89.6592c-2.5122,0-4.853-1.5898-5.6909-4.104c-1.0479-3.1436,0.6509-6.5415,3.7944-7.5894
		c2.3071-0.769,9.9912-6.0044,14.7441-10.7573c2.3428-2.3428,6.1426-2.3428,8.4854,0c2.3433,2.3433,2.3433,6.1421,0,8.4854
		c-5.0825,5.0825-14.4736,12.0024-19.4346,13.6558C171.998,89.5596,171.3579,89.6592,170.729,89.6592z"/>
	<path style="fill:#441818;" d="M126.7866,89.6592c-0.6294,0-1.269-0.0996-1.8984-0.3096
		c-4.9609-1.6533-14.3521-8.5732-19.4346-13.6558c-2.3433-2.3433-2.3433-6.1421,0-8.4854c2.3428-2.3428,6.1426-2.3428,8.4854,0
		c4.7529,4.7529,12.437,9.9883,14.7441,10.7573c3.1436,1.0479,4.8423,4.4458,3.7944,7.5894
		C131.6396,88.0693,129.2983,89.6592,126.7866,89.6592z"/>
	<g>
		<path style="fill:#F7D5D5;" d="M209.7915,108.0713c1.2207,15.8687,13.4274,18.3101,13.4274,18.3101"/>
		<path style="fill:#441818;" d="M222.042,132.2656c-0.6807-0.1367-16.6816-3.5654-18.2334-23.7344
			c-0.2539-3.3037,2.2188-6.188,5.5225-6.4424c3.3018-0.2505,6.1875,2.2183,6.4424,5.5225
			c0.8242,10.7197,7.917,12.7158,8.7227,12.9082l-0.1006-0.0215L222.042,132.2656z"/>
	</g>
	<path style="fill:#F7D5D5;" d="M228.376,76.7666c-2.0381,0-4.0264-1.0391-5.1514-2.9141
		c-6.5947-10.9932-20.2793-20.0371-29.9951-24.4409c-3.0181-1.3682-4.3555-4.9238-2.9873-7.9419
		c1.3677-3.0186,4.9219-4.3564,7.9424-2.9878c11.8291,5.3628,27.3232,15.8491,35.3311,29.1968
		c1.7041,2.8418,0.7832,6.5273-2.0586,8.2319C230.4902,76.4907,229.4268,76.7666,228.376,76.7666z"/>
</g>
</svg>
