<?xml version="1.0" encoding="utf-8"?>
<!-- Generator: Adobe Illustrator 26.5.1, SVG Export Plug-In . SVG Version: 6.00 Build 0)  -->
<svg version="1.1" id="Layer_1" xmlns="http://www.w3.org/2000/svg" xmlns:xlink="http://www.w3.org/1999/xlink" x="0px" y="0px"
	 viewBox="0 0 528.304 126.4329" style="enable-background:new 0 0 528.304 126.4329;" xml:space="preserve">
<g>
	<g>
		<path style="fill:#F7D5D5;" d="M60.9962,56.1298c0,0-15.3459-12.7273-15.3459-22.4926
			c-19.5308,12.2067-7.5892,22.5324-7.5892,22.5324L60.9962,56.1298z"/>
		<path style="fill:#441818;" d="M45.6503,33.6372c0,9.7654,15.3459,22.4926,15.3459,22.4926l-22.9351,0.0398
			C38.0611,56.1696,26.1195,45.8439,45.6503,33.6372 M45.6507,21.6372c-2.2112,0-4.4182,0.6102-6.3604,1.824
			C28.8349,29.9958,23.1899,37.754,22.512,46.5202c-0.6457,8.3494,3.7445,15.3062,7.7002,18.7266
			c2.1804,1.8854,4.9667,2.9228,7.8487,2.9228c0.007,0,0.0139,0,0.0209,0l22.9351-0.0398
			c5.0536-0.0087,9.5601-3.1827,11.2708-7.9379c1.7107-4.7552,0.2588-10.0726-3.631-13.2987
			c-5.1744-4.3249-10.488-10.8136-11.0077-13.4315c-0.0626-4.2943-2.4173-8.2338-6.1815-10.3201
			C49.6552,22.137,47.6511,21.6372,45.6507,21.6372L45.6507,21.6372z"/>
	</g>
	<g>
		<path style="fill:#E24747;" d="M8.5494,105.0632c0-19.5974,11.9474-39.1282,51.009-48.8936s366.526-14.6481,406.6461,0
			s49.5733,22.2151,49.5733,35.521s-7.0118,25.5126-24.1013,25.5126s-462.3186,0-471.6318,0S8.5494,112.4538,8.5494,105.0632z"/>
		<path style="fill:#441818;" d="M491.676,123.2032H20.0447c-11.6089,0-17.4951-6.1035-17.4951-18.1396
			c0-18.625,9.6382-43.2358,55.5537-54.7148c21.5146-5.3784,119.082-8.7671,204.3413-9.334
			c41.4102-0.2778,178.6416-0.4033,205.8174,9.5186c37.7393,13.7793,53.5156,22.5435,53.5156,41.1572
			C521.7776,110.834,509.9622,123.2032,491.676,123.2032z M289.2874,52.9239c-8.708,0-17.6348,0.0298-26.7627,0.0903
			c-96.9922,0.6455-183.6226,4.5039-201.5112,8.9761c-30.8311,7.708-46.4639,22.2002-46.4639,43.0732
			c0,5.6475,0.9004,6.1396,5.4951,6.1396H491.676c16.3379,0,18.1016-13.6455,18.1016-19.5127
			c0-7.9883-3.1758-14.3838-45.6309-29.8848C449.0168,56.2818,381.6213,52.9239,289.2874,52.9239z"/>
	</g>
	<path style="fill:#EA6C6C;" d="M59.5235,92.7898c-6.2318,0-7.7-8.7956-1.7753-10.7278c2.348-0.7657,4.9185-1.5048,7.7324-2.2085
		c16.1095-4.0268,111.9395-8.5161,223.6906-8.5161c116.0426,0,160.6186,4.8827,168.6626,7.7651
		c2.9388,1.0731,5.6336,2.083,8.1045,3.0328c5.7083,2.1942,4.134,10.6544-1.9815,10.6544H59.5235z"/>
	<path style="fill:#441818;" d="M221.9021,90.1924c-3.1318,0-5.7695-2.4297-5.981-5.6006c-0.2202-3.3066,2.2812-6.166,5.5874-6.3857
		c0.2217-0.0156,23.229-1.7676,34.9761-14.9839c2.2012-2.4775,5.9922-2.7002,8.4707-0.498c2.4766,2.2012,2.6992,5.9937,0.498,8.4707
		c-15.0459,16.9272-42.0059,18.9077-43.146,18.9839C222.1716,90.1885,222.0364,90.1924,221.9021,90.1924z"/>
	<path style="fill:#441818;" d="M119.3772,90.4102c-0.1299,0-0.2598-0.0039-0.3911-0.0127
		c-1.0864-0.0693-26.7456-1.8555-39.1729-14.2812c-2.3433-2.3438-2.3433-6.1426,0-8.4858c2.3428-2.3428,6.1416-2.3428,8.4854,0
		c7.687,7.687,25.3149,10.397,31.458,10.7925c3.3071,0.2129,5.8154,3.0664,5.6025,6.373
		C125.1545,87.9707,122.5149,90.4102,119.3772,90.4102z"/>
	<path style="fill:#441818;" d="M171.574,101.2696h-26.7485c-3.3135,0-6-2.6865-6-6s2.6865-6,6-6h26.7485c3.3135,0,6,2.6865,6,6
		S174.8874,101.2696,171.574,101.2696z"/>
	<g>
		<path style="fill:#F7D5D5;" d="M283.4643,47.5851c0,0,15.3459-12.7273,15.3459-22.4926
			c19.5308,12.2067,7.5892,22.5324,7.5892,22.5324L283.4643,47.5851z"/>
		<path style="fill:#441818;" d="M298.8102,25.0925c19.5307,12.2067,7.5891,22.5324,7.5891,22.5324l-22.9351-0.0398
			C283.4643,47.5851,298.8102,34.8579,298.8102,25.0925 M298.8098,13.0925c-2.0007,0-4.0044,0.4997-5.8168,1.5043
			c-3.7642,2.0863-6.1189,6.0257-6.1815,10.3201c-0.5197,2.618-5.8335,9.1068-11.0249,13.4458
			c-3.8711,3.2355-5.314,8.5544-3.5971,13.2985c1.7169,4.7441,6.2088,7.9152,11.254,7.9239l22.9351,0.0398
			c0.0069,0,0.014,0,0.0209,0c2.8822,0,5.6682-1.0373,7.8487-2.9228c3.9557-3.4204,8.3459-10.3772,7.7002-18.7266
			c-0.6779-8.7663-6.3229-16.5244-16.7782-23.059C303.2282,13.7028,301.0208,13.0925,298.8098,13.0925L298.8098,13.0925z"/>
	</g>
	<path style="fill:#F7D5D5;" d="M435.4241,81.3389c-0.7461,0-1.5039-0.1406-2.2383-0.4355
		c-11.8936-4.7881-28.2627-3.7432-38.6689-1.3926c-3.2236,0.7275-6.4443-1.2979-7.1738-4.5312
		c-0.7305-3.2319,1.2988-6.4438,4.5312-7.1738c12.668-2.8604,31.3506-3.8467,45.792,1.9653
		c3.0742,1.2373,4.5635,4.7319,3.3262,7.8062C440.05,79.917,437.8,81.3389,435.4241,81.3389z"/>
</g>
</svg>
