<?xml version="1.0" encoding="utf-8"?>
<!-- Generator: Adobe Illustrator 26.5.1, SVG Export Plug-In . SVG Version: 6.00 Build 0)  -->
<svg version="1.1" id="Layer_1" xmlns="http://www.w3.org/2000/svg" xmlns:xlink="http://www.w3.org/1999/xlink" x="0px" y="0px"
	 viewBox="0 0 396.2649 275.2762" style="enable-background:new 0 0 396.2649 275.2762;" xml:space="preserve">
<g>
	<g>
		<path style="fill:#F7D5D5;" d="M214.998,29.5824c0,0,12.668-2.7443,11.4134-14.0707c13.9836,14.0707,5.1668,28.3285-5.663,32.6282
			C209.9186,52.4397,214.998,29.5824,214.998,29.5824z"/>
		<path style="fill:#441818;" d="M226.4114,15.5118c13.9836,14.0706,5.1668,28.3285-5.663,32.6282
			c-0.9307,0.3695-1.7447,0.5386-2.4537,0.5386c-7.5414,0-3.2967-19.0962-3.2967-19.0962S227.666,26.8381,226.4114,15.5118
			 M226.408,3.5114c-1.7542,0-3.5225,0.3844-5.1763,1.1758c-4.6017,2.2019-7.3082,7.0726-6.7477,12.1429
			c-0.4604,0.3676-1.389,0.8289-2.1274,1.0424c-4.7276,0.8711-8.0268,4.4005-9.0727,9.1061
			c-1.5809,7.1121-3.3128,20.1907,2.8497,27.8735c2.9701,3.7028,7.4027,5.8265,12.1611,5.8265c2.2509,0,4.5662-0.4661,6.8817-1.3854
			c10.1439-4.0275,17.7502-12.7958,19.8505-22.8832c2.1303-10.2314-1.458-20.6573-10.1039-29.3571
			C232.6186,4.7342,229.5359,3.5114,226.408,3.5114L226.408,3.5114z"/>
	</g>
	<g>
		<path style="fill:#E24747;" d="M57.4234,160.3418c15.0851,2.1544,12.9307,17.2395,11.8535,24.7821
			c-2.1544,15.0851-38.0704,33.0449-45.6131,31.9677s-11.8528-6.8237-10.7756-14.3663
			C13.9654,195.1827,44.8525,158.5465,57.4234,160.3418z"/>
		<path style="fill:#441818;" d="M75.514,183.8236c-0.0998,0.764-0.2022,1.4834-0.2975,2.149
			c-1.535,10.7467-13.6768,20.2406-23.592,26.313c-7.3089,4.4757-21.6011,11.7755-28.8091,10.7456
			c-10.8053-1.5427-17.312-10.1082-15.9052-20.876c0.0122-0.093,0.0252-0.1848,0.0383-0.2777
			c1.2454-8.7178,18.8099-27.2056,19.5572-27.9884c13.3897-14.0286,24.0776-20.5851,31.7658-19.4871l0.0005,0.0001
			c8.9161,1.2732,14.9423,6.5623,16.9692,14.8922C76.4919,174.4351,76.0453,179.757,75.514,183.8236z M24.4213,211.1385
			c2.2854,0.015,11.3409-3.1034,21.5772-9.4824c12.0366-7.5015,16.8632-14.0505,17.3386-17.3803
			c0.468-3.2957,1.1831-8.2832,0.2439-12.145c-0.6346-2.6091-1.9228-5.1234-7.0059-5.8495
			c-1.3877-0.1887-8.1913,2.2178-20.8242,15.3048c-9.9282,10.2849-16.2527,19.777-16.939,22.1013
			c-0.001,0.0077-0.0021,0.016-0.0031,0.0237C18.2645,207.8778,20.2528,210.5097,24.4213,211.1385z"/>
	</g>
	<g>
		<path style="fill:#E24747;" d="M134.6537,7.995c109.207,0,132.0643,116.8261,167.6201,157.4613s86.3497,60.9528,86.3497,78.7306
			s-10.1588,22.8573-20.3176,22.8573c-10.1588,0-234.1967,0-254.2421,0s-73.379-99.0482-73.379-170.1598
			S106.7171,7.995,134.6537,7.995z"/>
		<path style="fill:#441818;" d="M368.306,273.0443H114.0638c-19.04,0-42.8052-47.3467-49.6353-61.8579
			c-8.9429-19-29.7437-68.1724-29.7437-114.3018c0-41.3125,21.3062-64.188,39.1802-76.104
			C94.6409,6.93,118.889,1.995,134.6536,1.995c37.4102,0,68.3936,12.9727,94.7197,39.6597
			c22.3574,22.6646,37.5264,51.2627,50.9092,76.4946c9.4385,17.7964,17.5908,33.166,26.5068,43.356
			c16.5684,18.936,36.9268,33.6216,53.2852,45.4214c20.0566,14.4683,34.5488,24.9219,34.5488,37.2603
			C394.6234,262.2562,384.7855,273.0443,368.306,273.0443z M134.6536,13.995c-13.3672,0-35.5649,4.3921-54.1323,16.77
			C58.0691,45.7333,46.6849,67.9794,46.6849,96.8846c0,30.3232,10.6919,71.1426,28.6011,109.1914
			c18.0601,38.3696,34.4185,54.9683,38.7778,54.9683H368.306c9.7676,0,14.3174-5.3564,14.3174-16.8574
			c0-6.1982-15.0322-17.0415-29.5693-27.5283c-16.8525-12.1562-37.8262-27.2856-55.2959-47.251
			c-9.834-11.2388-18.2881-27.1787-28.0771-45.6353C243.7405,74.8636,211.4563,13.995,134.6536,13.995z"/>
	</g>
	<path style="fill:#EA6C6C;" d="M122.0464,244.4337c-2.2772,0-4.4408-0.9689-5.9371-2.6854
		c-6.4847-7.4393-17.8308-24.1829-29.6165-51.1746c-14.7424-33.7624-23.1977-67.9113-23.1977-93.6894
		c0-23.3309,8.6482-40.4373,26.4391-52.2982c16.5544-11.0358,36.0249-13.9806,44.9189-13.9806
		c29.7673,0,53.3934,9.8957,74.3521,31.1415c19.4146,19.6803,33.5387,46.3107,46.0009,69.8072
		c9.8479,18.5652,19.1481,36.1015,30.2531,48.7918c18.7153,21.39,40.5411,37.1334,58.0774,49.784l0,0
		c6.2166,4.4838,3.0448,14.3037-4.6201,14.3037H122.0464z"/>
	<g>
		<path style="fill:#E24747;" d="M320.2003,158.7376c1.7382,15.1387-13.4005,16.8769-20.9699,17.746
			c-15.1388,1.7382-41.6129-28.4551-42.4821-36.0245c-0.8691-7.5694,3.5978-13.195,11.1671-14.0641
			C275.4849,125.5259,318.7518,146.122,320.2003,158.7376z"/>
		<path style="fill:#441818;" d="M250.7873,141.1434c-1.2558-10.9369,5.5059-19.4532,16.4438-20.7091
			c8.7482-1.0045,31.0834,11.3025,32.0298,11.8269c16.9639,9.3978,26.0144,18.0764,26.9004,25.7923
			c2.4226,21.0997-19.1558,23.5773-26.2464,24.3914c-10.7852,1.2383-23.0463-8.1017-31.4328-16.1557
			C262.3009,160.3538,251.6179,148.377,250.7873,141.1434z M268.4861,132.3699c-4.1846,0.5217-6.2358,3.1134-5.787,7.3134
			c0.5644,2.2147,5.8759,10.1843,14.6405,18.4711c10.3061,9.7435,17.8651,12.7524,21.2065,12.3687
			c12.677-1.4556,16.4907-4.1543,15.6936-11.1009c-0.1685-1.3902-4.2198-7.3616-20.0813-16.2667
			C281.6931,136.1566,270.9078,132.4448,268.4861,132.3699z"/>
	</g>
	<path style="fill:#441818;" d="M130.8382,172.726c-3.1426,0-5.7832-2.4458-5.9824-5.6255
		c-0.207-3.3071,2.3066-6.1558,5.6133-6.3628c10.7871-0.6753,23.2275-2.0635,30.6387-3.5234
		c-0.459-0.2915-0.9219-0.583-1.373-0.8682c-6.2021-3.9131-15.5742-9.8262-27.7979-20.6914
		c-2.4766-2.2017-2.6992-5.9937-0.498-8.4707c2.2012-2.4766,5.9922-2.7002,8.4707-0.498
		c11.4863,10.2105,20.3574,15.8076,26.2285,19.5112c6.8301,4.3091,11.3418,7.1558,11.3418,12.9097
		c0,7.2036-8.2461,9.5024-25.5732,11.668c-10.2266,1.2783-20.2656,1.9131-20.6885,1.9395
		C131.0911,172.722,130.9642,172.726,130.8382,172.726z M165.9144,160.6322h0.0098H165.9144z"/>
	<path style="fill:#441818;" d="M255.2952,172.726c-0.126,0-0.2529-0.0039-0.3799-0.0117
		c-0.4229-0.0264-10.4619-0.6611-20.6875-1.9395c-17.3271-2.1655-25.5732-4.4644-25.5732-11.668
		c0-5.7539,4.5117-8.6006,11.3418-12.9102c5.8701-3.7036,14.7412-9.3003,26.2275-19.5107c2.4775-2.2021,6.2686-1.9785,8.4707,0.498
		c2.2012,2.4771,1.9785,6.2691-0.498,8.4707c-12.2227,10.8647-21.5947,16.7778-27.7969,20.6909
		c-0.4521,0.2852-0.915,0.5776-1.374,0.8691c7.4111,1.4609,19.8516,2.8486,30.6377,3.5229
		c3.3076,0.2065,5.8213,3.0552,5.6143,6.3623C261.0794,170.2797,258.4378,172.726,255.2952,172.726z"/>
	<path style="fill:#441818;" d="M174.0169,200.6644c-0.7422,0-1.4961-0.1382-2.2266-0.4307
		c-3.0771-1.231-4.5732-4.7227-3.3418-7.7993c3.4707-8.6777,13.3418-14.8076,24.5625-15.2539
		c11.2383-0.436,20.8506,5.0923,25.6689,14.8184c1.4717,2.9692,0.2568,6.5693-2.7119,8.0405
		c-2.9707,1.4707-6.5693,0.2573-8.04-2.7124c-3.6914-7.4492-10.6309-8.3101-14.4404-8.1558
		c-6.2617,0.249-12.2373,3.5679-13.8984,7.7202C178.6517,199.2372,176.3978,200.6644,174.0169,200.6644z"/>
	<g>
		<path style="fill:#F7D5D5;" d="M62.4782,38.6097c0,0-12.668-2.7443-11.4134-14.0707
			c-13.9836,14.0707-5.1668,28.3285,5.663,32.6282S62.4782,38.6097,62.4782,38.6097z"/>
		<path style="fill:#441818;" d="M51.0648,24.5391h0.005 M51.0648,24.5391c-1.2546,11.3263,11.4134,14.0706,11.4134,14.0706
			s4.2447,19.0961-3.2967,19.0961c-0.709,0-1.523-0.1691-2.4537-0.5386C45.898,52.8676,37.0812,38.6097,51.0648,24.5391
			 M51.0682,12.5387c-0.1749,0-0.3498,0.0038-0.5243,0.0115c-2.7813,0.1187-5.3166,1.1837-7.2935,2.8818
			c-0.0007,0.0006-0.0015,0.0013-0.0022,0.0019c-0.0037,0.0032-0.0075,0.0064-0.0111,0.0096
			c-0.0023,0.002-0.0045,0.0038-0.0068,0.0059c-0.0023,0.002-0.004,0.0034-0.0062,0.0054
			c-0.0033,0.0028-0.0063,0.0055-0.0096,0.0083c-0.0011,0.001-0.0027,0.0023-0.0038,0.0033
			c-0.004,0.0034-0.0075,0.0065-0.0114,0.0099c-0.0006,0.0005-0.001,0.0008-0.0015,0.0013
			c-0.0044,0.0038-0.0087,0.0075-0.0131,0.0114l0,0c-0.0901,0.0785-0.1796,0.1588-0.2676,0.2404l-0.0004,0.0003
			c-0.0041,0.0038-0.0084,0.0077-0.0124,0.0115c-0.0005,0.0005-0.0008,0.0007-0.0013,0.0013
			c-0.0036,0.0034-0.0076,0.007-0.0112,0.0104c-0.0011,0.001-0.0019,0.0018-0.003,0.0028
			c-0.0034,0.0032-0.0067,0.0062-0.0101,0.0094c-0.0014,0.0013-0.0026,0.0025-0.004,0.0038
			c-0.0027,0.0025-0.006,0.0056-0.0087,0.0081c-0.0019,0.0018-0.0042,0.0039-0.0061,0.0057
			c-0.0025,0.0023-0.0046,0.0043-0.007,0.0066c-0.0027,0.0026-0.0057,0.0053-0.0084,0.0079
			c-0.0016,0.0015-0.0028,0.0027-0.0044,0.0042c-0.0038,0.0036-0.0077,0.0073-0.0116,0.0109
			c-0.0005,0.0004-0.0013,0.0012-0.0017,0.0016c-0.0984,0.0929-0.1953,0.1876-0.2905,0.2838
			c-8.6334,8.6962-12.2156,19.1152-10.0867,29.3398C34.5499,55.5249,42.1562,64.2932,52.3,68.3206
			c2.3155,0.9193,4.6309,1.3855,6.8818,1.3855c4.7584,0,9.191-2.1237,12.1611-5.8265c6.1625-7.6827,4.4306-20.7613,2.8497-27.8734
			c-1.046-4.7055-4.3451-8.2349-9.0727-9.106c-0.7367-0.213-1.6627-0.6727-2.1242-1.0399c0.0476-0.4339,0.0719-0.8744,0.0719-1.3209
			c0-6.4288-5.0526-11.6769-11.4047-11.9856C51.4645,12.5436,51.266,12.5387,51.0682,12.5387L51.0682,12.5387z M51.0648,36.5391
			h0.005H51.0648L51.0648,36.5391z"/>
	</g>
	<path style="fill:#F7D5D5;" d="M214.0735,73.9423c-2.0381,0-4.0254-1.0386-5.1504-2.9141
		c-6.5967-10.9937-20.2822-20.0371-29.9971-24.4409c-3.0176-1.3682-4.3555-4.9238-2.9873-7.9419
		c1.3682-3.019,4.9219-4.3579,7.9424-2.9878c11.8291,5.3623,27.3223,15.8486,35.3311,29.1968
		c1.7051,2.8413,0.7842,6.5269-2.0576,8.2319C216.1888,73.6659,215.1243,73.9423,214.0735,73.9423z"/>
</g>
</svg>
