<?xml version="1.0" encoding="utf-8"?>
<!-- Generator: Adobe Illustrator 26.5.1, SVG Export Plug-In . SVG Version: 6.00 Build 0)  -->
<svg version="1.1" id="Layer_1" xmlns="http://www.w3.org/2000/svg" xmlns:xlink="http://www.w3.org/1999/xlink" x="0px" y="0px"
	 viewBox="0 0 528.304 126.4329" style="enable-background:new 0 0 528.304 126.4329;" xml:space="preserve">
<g>
	<g>
		<path style="fill:#F7D5D5;" d="M38.0613,56.4247c-1.4409,0-2.834-0.5727-3.9243-1.6139
			c-0.6431-0.6143-6.2661-6.2575-5.6426-15.1584c0.5229-7.4681,5.2251-14.3171,13.9756-20.3573
			c0.9712-0.6703,2.0752-1.0073,3.1802-1.0073c1.0005,0,2.0024,0.2761,2.9087,0.8305c1.9077,1.168,3.0913,3.387,3.0913,5.7958
			c0,3.0937,4.188,11.507,13.1763,19.7404c1.9453,1.7812,2.6709,4.7174,1.8159,7.3435c-0.8555,2.6256-3.1089,4.3782-5.6357,4.3831
			C61.0066,56.381,38.0647,56.4247,38.0613,56.4247z"/>
		<path style="fill:#441818;" d="M45.6503,24.9141c0,10.7848,15.3459,24.8405,15.3459,24.8405l-22.9351,0.044
			C38.0611,49.7985,26.1195,38.395,45.6503,24.9141 M45.6507,11.6614c-2.2112,0-4.4182,0.6739-6.3604,2.0144
			c-10.4554,7.2167-16.1004,15.7848-16.7783,25.466c-0.6457,9.221,3.7445,16.904,7.7002,20.6814
			c2.1804,2.0822,4.9667,3.2279,7.8487,3.2279c0.007,0,0.0139,0,0.0209,0l22.9351-0.044c5.0536-0.0096,9.5601-3.5149,11.2708-8.7665
			s0.2588-11.124-3.631-14.6869c-5.1744-4.7764-10.488-11.9424-11.0077-14.8336c-0.0626-4.7426-2.4173-9.0933-6.1815-11.3974
			C49.6552,12.2134,47.6511,11.6614,45.6507,11.6614L45.6507,11.6614z"/>
	</g>
	<g>
		<path style="fill:#E24747;" d="M8.5494,103.796c0-21.6431,11.9474-43.2126,51.009-53.9974s366.526-16.1772,406.6461,0
			s49.5733,24.534,49.5733,39.2289s-7.0118,28.1758-24.1013,28.1758s-462.3186,0-471.6318,0S8.5494,111.958,8.5494,103.796z"/>
		<path style="fill:#441818;" d="M491.6768,123.2031H20.0449c-11.6094,0-17.4956-6.5293-17.4956-19.4072
			c0-20.292,9.6138-47.1357,55.4126-59.7812C79.5195,38.063,177.145,34.3145,262.4404,33.688
			c41.4346-0.3032,178.7539-0.4434,206.0078,10.5459c37.6074,15.1641,53.3291,24.7397,53.3291,44.7935
			C521.7773,109.7881,509.9619,123.2031,491.6768,123.2031z M289.3359,45.5874c-8.7256,0-17.6582,0.0332-26.8076,0.1001
			c-96.9502,0.7124-183.522,4.9658-201.373,9.8945c-30.9253,8.5381-46.606,24.7598-46.606,48.2139
			c0,7.0488,1.4121,7.4072,5.4956,7.4072h471.6318c16.3369,0,18.1006-15.5078,18.1006-22.1758
			c0-10.7119-6.3662-17.7568-45.8174-33.6646C448.8818,49.2832,381.5713,45.5874,289.3359,45.5874z"/>
	</g>
	<path style="fill:#EA6C6C;" d="M59.5235,90.2414c-6.2318,0-7.7-9.7137-1.7753-11.8476c2.348-0.8456,4.9185-1.6619,7.7324-2.439
		c16.1095-4.4471,111.9395-9.4051,223.6906-9.4051c116.0426,0,160.6186,5.3924,168.6626,8.5757
		c2.9388,1.1851,5.6336,2.3004,8.1045,3.3494c5.7083,2.4232,4.134,11.7666-1.9815,11.7666H59.5235V90.2414z"/>
	<path style="fill:#441818;" d="M221.9014,86.7461c-3.1133,0-5.7451-2.4043-5.9775-5.5596
		c-0.2432-3.3047,2.2383-6.1807,5.5435-6.4238c0.2178-0.0176,23.0884-1.9492,34.8276-16.5352
		c2.0776-2.5806,5.855-2.9893,8.4365-0.9121c2.5811,2.0781,2.9893,5.855,0.9121,8.4365
		c-15.0479,18.6953-42.1489,20.8936-43.2954,20.9775C222.1987,86.7412,222.0493,86.7461,221.9014,86.7461z"/>
	<path style="fill:#441818;" d="M119.3774,86.9873c-0.1431,0-0.2866-0.0049-0.4316-0.0146
		c-1.0923-0.0781-26.8931-2.0596-39.3379-15.8047c-2.2241-2.457-2.0356-6.251,0.4209-8.4751
		c2.4556-2.2231,6.25-2.0352,8.4746,0.4209c7.6323,8.4292,25.1816,11.4399,31.2998,11.8892
		c3.3022,0.2422,5.7876,3.1143,5.5488,6.416C125.124,84.5771,122.4941,86.9873,119.3774,86.9873z"/>
	<path style="fill:#441818;" d="M171.5737,98.9795h-26.748c-3.3135,0-6-2.6865-6-6s2.6865-6,6-6h26.748c3.3135,0,6,2.6865,6,6
		S174.8872,98.9795,171.5737,98.9795z"/>
	<g>
		<path style="fill:#F7D5D5;" d="M283.4534,46.9441c-2.5264-0.0049-4.7793-1.7574-5.6348-4.3835
			c-0.8555-2.6256-0.1299-5.5618,1.8154-7.343c5.3105-4.8829,13.1758-14.5377,13.1758-19.7403c0-2.4089,1.1836-4.6278,3.0918-5.7958
			c0.9053-0.5544,1.9082-0.8305,2.9082-0.8305c1.1055,0,2.209,0.3371,3.1797,1.0073c8.752,6.0401,13.4541,12.8897,13.9766,20.3584
			c0.624,8.9004-4.999,14.5435-5.6416,15.1578c-1.0908,1.0413-2.4834,1.6139-3.9248,1.6139
			C306.3958,46.9883,283.4534,46.9441,283.4534,46.9441z"/>
		<path style="fill:#441818;" d="M298.8102,15.4774c19.5307,13.4809,7.5891,24.8845,7.5891,24.8845l-22.9351-0.044
			C283.4643,40.3179,298.8102,26.2622,298.8102,15.4774 M298.8098,2.2248c-2.0007,0-4.0044,0.5519-5.8168,1.6613
			c-3.7642,2.3041-6.1189,6.6547-6.1815,11.3974c-0.5197,2.8913-5.8335,10.0574-11.0249,14.8494
			c-3.8711,3.5732-5.314,9.4474-3.5971,14.6867s6.2088,8.7414,11.254,8.751l22.9351,0.044c0.0069,0,0.014,0,0.0209,0
			c2.8822,0,5.6682-1.1456,7.8487-3.2279c3.9557-3.7774,8.3459-11.4604,7.7002-20.6814
			c-0.6779-9.6814-6.3229-18.2493-16.7782-25.466C303.2282,2.8988,301.0208,2.2248,298.8098,2.2248L298.8098,2.2248z"/>
	</g>
	<path style="fill:#F7D5D5;" d="M435.4229,76.9688c-0.8145,0-1.6416-0.167-2.4346-0.5195
		c-11.7803-5.2363-28.0166-4.0879-38.3398-1.5156c-3.2148,0.8047-6.4727-1.1543-7.2734-4.3691
		c-0.8018-3.2158,1.1543-6.4717,4.3691-7.2739c12.7549-3.1802,31.5664-4.2749,46.1191,2.1938
		c3.0273,1.3457,4.3916,4.8916,3.0449,7.9199C439.915,75.6396,437.7207,76.9678,435.4229,76.9688z"/>
</g>
</svg>
