<?xml version="1.0" encoding="utf-8"?>
<!-- Generator: Adobe Illustrator 26.5.1, SVG Export Plug-In . SVG Version: 6.00 Build 0)  -->
<svg version="1.1" id="Layer_1" xmlns="http://www.w3.org/2000/svg" xmlns:xlink="http://www.w3.org/1999/xlink" x="0px" y="0px"
	 viewBox="0 0 327.1189 311.5039" style="enable-background:new 0 0 327.1189 311.5039;" xml:space="preserve">
<g>
	<g>
		<path style="fill:#F7D5D5;" d="M296.6988,124.1413c9.3705-4.0202,13.8565-6.8445,15.9169-12.5265
			c7.2431,15.4847-4.0904,22.0607-4.0904,22.0607C301.1177,135.1402,298.2934,130.6542,296.6988,124.1413z"/>
		<path style="fill:#441818;" d="M312.6157,111.6149c7.2431,15.4847-4.0905,22.0607-4.0905,22.0607
			c-2.3072,0.4561-4.1705,0.3349-5.6897-0.245c-3.3584-1.2821-5.0388-4.8049-6.1368-9.2892
			C306.0693,120.1211,310.5553,117.2968,312.6157,111.6149 M316.893,100.4028c-1.506-0.5749-3.1397-0.8509-4.8149-0.7758
			c-4.8487,0.2175-9.0889,3.3343-10.7435,7.8971c-0.3263,0.8999-1.3462,2.1482-9.3671,5.5894
			c-5.3909,2.3129-8.3196,8.1841-6.9244,13.8819c0.8343,3.4071,3.373,13.7753,13.5128,17.6461
			c3.7073,1.4153,7.8446,1.6865,12.2968,0.8063c1.3001-0.257,2.5486-0.7276,3.6949-1.3927c1.3529-0.785,6.0225-3.8199,9.304-9.9125
			c3.0641-5.6887,5.4877-15.0969-0.3663-27.6119C322.1394,103.6532,319.7456,101.4918,316.893,100.4028L316.893,100.4028z"/>
	</g>
	<g>
		<path style="fill:#E24747;" d="M200.5034,79.7511c83.0057,0,117.1845,56.1509,117.1845,112.3019
			s-26.8548,108.7157-58.5923,108.7157c0,0-144.2993,0-155.1554,0s-18.1801-3.7378-18.1801-11.0619s14.6481-12.2067,14.6481-24.4135
			s-17.0894-34.1788-17.0894-85.4471S122.3804,79.7511,200.5034,79.7511z"/>
		<path style="fill:#441818;" d="M259.0957,306.7687H103.9404c-17.8281,0-24.1802-8.8135-24.1802-17.0615
			c0-5.7202,4.1118-9.7446,7.7393-13.2959c4.1733-4.085,6.9087-7.0654,6.9087-11.1182c0-2.9458-1.7417-7.7344-3.9468-13.7973
			c-5.2334-14.3901-13.1426-36.1367-13.1426-71.6494c0-28.3228,11.0649-54.4668,31.1567-73.6167
			c22.293-21.2476,54.1162-32.4785,92.0283-32.4785c39.8145,0,72.3828,12.8232,94.1816,37.084
			c18.7031,20.814,29.0029,49.6577,29.0029,81.2178c0,28.0093-6.5947,56.5205-18.0928,78.2236
			C293.1279,293.8087,276.6143,306.7687,259.0957,306.7687z M200.5039,85.7511c-34.7705,0-63.7305,10.085-83.749,29.165
			c-17.6924,16.8628-27.436,39.9224-27.436,64.9302c0,33.3984,7.4741,53.9492,12.4199,67.5479
			c2.7104,7.4536,4.6694,12.8389,4.6694,17.8989c0,9.4014-6.0771,15.3501-10.5146,19.6938
			c-1.5674,1.5342-3.9355,3.853-4.1392,4.7925c0.0059,4.7451,10.1523,4.9893,12.186,4.9893h155.1553
			c12.6738,0,25.7578-10.9746,35.8965-30.1104c10.6104-20.0278,16.6963-46.4917,16.6963-72.6055
			c0-28.5942-9.208-54.5894-25.9287-73.1973C266.2998,97.1984,236.8184,85.7511,200.5039,85.7511z"/>
	</g>
	<path style="fill:#EA6C6C;" d="M135.5702,273.9143c-4.6761,0-8.3171-3.8527-8.3072-8.5288
		c0.0001-0.0307,0.0001-0.0614,0.0001-0.0922c0-8.7354-2.7465-16.286-5.9246-25.0262
		c-4.7134-12.9553-11.1649-30.698-11.1649-60.4209c0-33.7854,23.6577-73.2403,90.3298-73.2403
		c83.8163,0,90.3298,65.4013,90.3298,85.4471c0,22.8209-5.2022,45.7252-14.269,62.8432
		c-7.6149,14.3691-15.0558,19.0182-17.4685,19.0182L135.5702,273.9143L135.5702,273.9143z"/>
	<path style="fill:#F7D5D5;" d="M253.6191,120.6384c-1.2842,0-2.5771-0.4102-3.6709-1.2573
		c-6.3438-4.9146-16.4902-7.0879-23.252-7.4556c-3.3086-0.1802-5.8447-3.0083-5.665-6.3174
		c0.1797-3.3081,2.9805-5.8389,6.3174-5.665c8.8926,0.4839,21.4307,3.3525,29.9492,9.9517
		c2.6191,2.0293,3.0977,5.7983,1.0684,8.4175C257.1836,119.8385,255.4111,120.6384,253.6191,120.6384z"/>
	<g>
		<path style="fill:#F7D5D5;" d="M224.3459,119.7406c-9.4239-5.5193-13.8156-9.1177-15.2494-15.4305
			c-9.758,15.4931,1.412,23.9897,1.412,23.9897C218.1862,130.8418,221.7847,126.45,224.3459,119.7406z"/>
		<path style="fill:#441818;" d="M209.0965,104.3101c1.4338,6.3128,5.8256,9.9111,15.2494,15.4305
			c-2.5613,6.7094-6.1596,11.1012-13.8374,8.5592C210.5085,128.2998,199.3385,119.8032,209.0965,104.3101 M213.378,93.0993
			c-0.7222-0.2757-1.4775-0.484-2.2588-0.6175c-4.7841-0.8181-9.5899,1.3263-12.1766,5.4331
			c-7.6977,12.2219-6.4183,22.2627-3.9894,28.534c2.5961,6.7031,7.0019,10.4219,8.2903,11.4019
			c0.9116,0.6934,1.9169,1.2521,2.9852,1.6599c0.1679,0.0641,0.3373,0.1245,0.5082,0.181c6.096,2.0183,21.1076,4.5316,28.82-15.6714
			c2.0921-5.4803-0.0845-11.6698-5.1464-14.6345c-8.3679-4.9009-9.3216-6.4546-9.612-7.7335
			C219.899,97.6923,217.0776,94.5116,213.378,93.0993L213.378,93.0993z"/>
	</g>
	
		<ellipse transform="matrix(0.9987 -0.0512 0.0512 0.9987 -7.7508 12.2935)" style="fill:#441818;" cx="236.0768" cy="157.4318" rx="7.3237" ry="10.9856"/>
	
		<ellipse transform="matrix(0.9987 -0.0512 0.0512 0.9987 -7.7225 15.2203)" style="fill:#441818;" cx="293.2179" cy="158.3428" rx="7.3237" ry="10.9856"/>
	<path style="fill:#441818;" d="M274.8893,211.8991c-2.2161-0.846-3.8102-2.9707-3.8599-5.4885
		c-0.0659-3.3132,2.5666-6.0524,5.88-6.1177c10.8424-0.2152,15.849-3.9025,16.8214-5.4119
		c-0.8398-0.7136-3.5539-2.0513-9.4487-2.3239c-2.5067-0.1149-4.679-1.782-5.4411-4.1751
		c-0.7612-2.3927,0.0486-5.0067,2.0293-6.5508c4.1576-3.2406,5.6101-6.191,4.8958-7.4306
		c-0.9749-1.696-6.2534-3.6708-14.0197-0.5419c-3.0732,1.2377-6.5683-0.2475-7.808-3.3224
		c-1.2382-3.0734,0.2489-6.5693,3.3224-7.808c12.0521-4.857,24.206-2.4699,28.9041,5.6832
		c2.1065,3.6578,2.6631,8.7633-0.2362,14.2059c0.0403,0.0149,0.0814,0.0305,0.1216,0.0459
		c7.1537,2.7309,9.8847,7.6332,9.8253,12.1864c-0.1299,9.7788-12.2113,17.1141-28.7294,17.4408
		C276.3519,212.3064,275.589,212.1663,274.8893,211.8991z"/>
	<path style="fill:#441818;" d="M164.8021,190.124L35.924,42.1528c-0.1406-0.1615-0.2683-0.3338-0.3818-0.5154l-4.3785-7.0056
		c-2.1761-3.4817,1.5931-7.6269,5.2655-5.7908l5.8521,2.926c0.4983,0.2492,0.9401,0.5981,1.298,1.0252L170.9837,184.843
		c1.3952,1.6651,1.2348,4.1328-0.3641,5.6033l0,0C168.9353,191.9953,166.305,191.8496,164.8021,190.124z"/>
	<g>
		<path style="fill:#E24747;" d="M35.7127,41.9102C77.2155-4.4753,167.5453,0.4074,213.9308,44.3516
			c-53.7096-2.4413-95.2125,21.9721-83.0057,70.799c-58.5923-17.0894-97.6538,4.8827-85.4471,87.8884
			C3.9752,176.1842-5.7902,88.2958,35.7127,41.9102z"/>
		<path style="fill:#441818;" d="M53.3418,215.2741l-11.123-7.1973C22.3726,195.235,8.5591,169.7365,4.3193,138.1193
			C-0.8003,99.9367,9.2666,62.4728,31.2412,37.9098v-0.0005C49.9443,17.006,78.8467,4.7258,112.624,3.3312
			c40.0312-1.6538,79.4541,12.0532,105.4336,36.665l11.6963,11.0811l-16.0957-0.7319c-31.6924-1.4419-57.166,6.6675-69.9072,22.2437
			c-8.7832,10.7368-11.1396,24.5669-7.0049,41.1064l2.5352,10.1426l-10.0361-2.9272c-19.7227-5.752-46.7402-9.5571-63.4463,4.9922
			c-15.0581,13.1143-19.8979,38.7729-14.3848,76.2632L53.3418,215.2741z M118.8916,15.2023c-1.9258,0-3.8486,0.0391-5.7725,0.1187
			C82.6089,16.5807,56.707,27.4445,40.1846,45.9113h-0.0005c-19.6699,21.9839-28.6313,55.8584-23.9707,90.6133
			c2.8428,21.2012,10.6235,39.6313,21.5732,51.9468c-2.6084-33.6396,4.1401-57.6909,20.1313-71.6177
			c14.8506-12.9341,37.3281-16.2988,65.3848-9.8882c-1.9678-16.1885,1.8213-30.5576,11.1602-41.9741
			c12.6484-15.4634,34.9697-24.7827,62.6318-26.5132C175.6357,23.7531,147.2734,15.2023,118.8916,15.2023z"/>
	</g>
	<path style="fill:#EA6C6C;" d="M32.3915,135.644c-0.9696,2.621-4.7986,2.2912-5.1723-0.4783
		c-0.0052-0.0382-0.0103-0.0765-0.0154-0.1148c-4.1722-31.1128,3.9696-62.4379,21.2449-81.7457
		c15.3609-17.1681,41.0475-27.0145,70.4748-27.0145c12.5126,0,24.8948,1.7429,36.5374,5.0063
		c2.4104,0.6756,2.6214,4.0553,0.3154,5.0293c-12.759,5.3892-23.2143,13.0546-30.8066,22.7783
		c-5.6077,7.1839-11.2849,17.6847-12.8613,31.8078c-0.1665,1.492-1.4812,2.564-2.974,2.4041
		c-4.0496-0.4337-7.9751-0.6506-11.7634-0.6506c-22.1533,0-40.3942,7.5624-52.7536,21.872
		C39.4631,120.5045,35.3867,127.5478,32.3915,135.644z"/>
	<path style="fill:#F7D5D5;" d="M151.5205,40.818c-1.0381,0-2.0889-0.269-3.0469-0.8354
		c-6.9082-4.0825-17.2441-4.9702-24.002-4.4893c-3.3066,0.2407-6.1748-2.2539-6.4111-5.5591
		c-0.2344-3.3052,2.2539-6.1753,5.5596-6.4106c8.8828-0.6318,21.6826,0.646,30.959,6.1279c2.8525,1.686,3.7988,5.3652,2.1123,8.2183
		C155.5723,39.7643,153.5732,40.818,151.5205,40.818z"/>
</g>
</svg>
