<?xml version="1.0" encoding="utf-8"?>
<!-- Generator: Adobe Illustrator 26.5.1, SVG Export Plug-In . SVG Version: 6.00 Build 0)  -->
<svg version="1.1" id="Layer_1" xmlns="http://www.w3.org/2000/svg" xmlns:xlink="http://www.w3.org/1999/xlink" x="0px" y="0px"
	 viewBox="0 0 454 238" style="enable-background:new 0 0 454 238;" xml:space="preserve">
<g>
	<g>
		<path style="fill:#F7D5D5;" d="M30.1704,85.5684c-1.3516,0-2.6904-0.1309-3.9805-0.3892
			c-4.9731-0.9946-9.1621-4.5068-11.7949-9.8901c-4.5493-9.3008-3.687-22.0103,2.3066-33.9976
			c1.02-2.04,3.1025-3.3169,5.3652-3.3169c0.105,0,0.21,0.0029,0.3159,0.0083c2.3833,0.125,4.4653,1.6504,5.3037,3.8848
			c4.4536,11.877,9.6665,14.4741,17.8027,17.7285c1.5249,0.6099,2.7329,1.8179,3.3428,3.3423
			c1.9199,4.8003,1.3911,9.7866-1.4897,14.0415c-3.5327,5.2173-10.2725,8.5884-17.1704,8.5884
			C30.1714,85.5684,30.1709,85.5684,30.1704,85.5684z"/>
		<path style="fill:#441818;" d="M22.0684,43.9744c5.2982,14.1285,12.3625,17.6607,21.1928,21.1928
			c3.1637,7.9092-5.0061,14.401-13.0905,14.401c-0.9415,0-1.8831-0.0882-2.8041-0.2724
			C18.5363,77.5297,13.2381,61.6351,22.0684,43.9744 M22.0657,31.9743c-4.5254,0-8.6904,2.5537-10.7303,6.6335
			C4.5109,52.2568,3.6397,66.9548,9.005,77.925c3.4231,6.9991,9.2579,11.7876,16.0083,13.1377
			c1.677,0.3354,3.4123,0.5055,5.1575,0.5055c8.9688,0,17.4525-4.3013,22.1403-11.2255c3.9728-5.868,4.7353-13.0236,2.0919-19.6321
			c-1.2197-3.0492-3.6358-5.4653-6.685-6.685C40.8418,51.2751,37.0541,49.76,33.3045,39.761
			c-1.6759-4.4689-5.8407-7.5199-10.607-7.7701C22.4862,31.9798,22.2755,31.9743,22.0657,31.9743L22.0657,31.9743z"/>
	</g>
	<path style="fill:#E24747;stroke:#441818;stroke-width:12;stroke-miterlimit:10;" d="M112.316,9.0941
		c75.6817,0,80.5644,58.5923,104.9778,104.9778c21.9721,41.5029,100.0951,78.123,209.9557,78.123
		c12.2067,0,19.5308,7.324,19.5308,19.5308s-12.2067,14.6481-19.5308,14.6481s-295.4028,0-314.9335,0
		s-92.7711-36.6202-92.7711-117.1846S83.0199,9.0941,112.316,9.0941z"/>
	<path style="fill:#EA6C6C;" d="M113.0488,201.9603c-0.2783,0-0.5367-0.0109-0.8121-0.051
		c-13.2041-1.9219-68.2783-29.9786-68.2783-92.7201c0-74.821,65.5658-75.6817,68.3577-75.6817
		c42.0035,0,52.0574,19.6237,69.092,60.4483c4.3057,10.3209,8.7593,20.9946,14.2809,31.486
		c14.3963,27.1918,44.7366,49.9276,85.1259,65.8932c5.6572,2.2362,4.0809,10.6254-2.0022,10.6254L113.0488,201.9603
		L113.0488,201.9603z"/>
	<path style="fill:#441818;" d="M127.1055,129.748c-0.126,0-0.2524-0.0039-0.3804-0.0117
		c-0.4224-0.0264-10.4619-0.6611-20.6875-1.9395c-17.3271-2.166-25.5732-4.4648-25.5732-11.6685
		c0-5.7539,4.5122-8.6006,11.3423-12.9102c5.8701-3.7036,14.7407-9.3008,26.2271-19.5107c2.4756-2.2021,6.269-1.9785,8.4707,0.498
		c2.2017,2.4771,1.9785,6.269-0.498,8.4707c-12.2227,10.8643-21.5942,16.7778-27.7959,20.6904
		c-0.4526,0.2856-0.9155,0.5776-1.375,0.8696c7.4111,1.4609,19.8516,2.8491,30.6387,3.5234
		c3.3071,0.2065,5.8203,3.0557,5.6138,6.3623C132.8892,127.3018,130.248,129.748,127.1055,129.748z"/>
	<path style="fill:#441818;" d="M19.9648,127.707c-2.9707,0-5.5508-2.2051-5.9429-5.2295
		c-0.4258-3.2866,1.8926-6.2959,5.1787-6.7217c4.2148-0.5464,7.3281-1.0703,9.6177-1.5337
		c-0.4521-0.2871-0.9072-0.5742-1.3525-0.855c-3.2241-2.0347-7.2368-4.5664-12.1201-8.0854
		c-2.688-1.9375-3.2969-5.6875-1.3594-8.376c1.937-2.6885,5.6865-3.2964,8.376-1.3594c4.583,3.3032,8.4219,5.7256,11.5068,7.6719
		c6.8301,4.3091,11.3423,7.1562,11.3423,12.9102c0,7.064-8.2397,9.4243-24.4678,11.5278
		C20.4819,127.6904,20.2217,127.707,19.9648,127.707z M33.6455,117.6533h0.0103H33.6455z"/>
	<path style="fill:#F7D5D5;" d="M149.4082,47.043c-1.2808,0-2.5713-0.4087-3.6636-1.252
		c-7.626-5.8911-19.7554-8.4805-27.8247-8.9082c-3.3091-0.1753-5.8496-3-5.6743-6.3091c0.1758-3.3096,3.0288-5.853,6.3091-5.6743
		c10.2637,0.5439,24.7236,3.8232,34.5259,11.3945c2.6226,2.0259,3.106,5.7939,1.0806,8.4165
		C152.979,46.2407,151.2031,47.043,149.4082,47.043z"/>
	<g>
		<path style="fill:#F7D5D5;" d="M182.5752,77.3975c-5.9814,0-11.8369-2.9399-14.917-7.4893
			c-2.5239-3.7275-3.0068-8.2759-1.3257-12.479c0.6099-1.5249,1.8179-2.7329,3.3423-3.3428
			c6.543-2.6172,10.4141-4.5493,13.8877-13.8135c0.8379-2.2344,2.9204-3.7598,5.3037-3.8848
			c0.1055-0.0054,0.2109-0.0083,0.3159-0.0083c2.2627,0,4.3452,1.2769,5.3652,3.3164c5.0396,10.0791,5.7446,20.8076,1.8853,28.6987
			c-2.3018,4.7065-5.9932,7.7832-10.3945,8.6636C184.9146,77.2837,183.7495,77.3975,182.5752,77.3975z"/>
		<path style="fill:#441818;" d="M189.1808,42.3798c7.1989,14.3978,2.8795,27.3558-4.3193,28.7956
			c-0.7509,0.1502-1.5185,0.2221-2.286,0.2221c-6.5907,0-13.2512-5.2923-10.672-11.7403
			C179.1023,56.7775,184.8615,53.898,189.1808,42.3798 M189.1836,30.3797c-0.2101,0-0.4203,0.0055-0.6317,0.0166
			c-4.7663,0.2502-8.9311,3.3011-10.607,7.77c-2.7131,7.2351-5.1528,8.211-10.4981,10.3491
			c-3.0492,1.2197-5.4653,3.6358-6.685,6.685c-2.4327,6.0817-1.7299,12.6685,1.928,18.0714
			c4.2286,6.2457,11.8483,10.1257,19.8857,10.1257c1.5683,0,3.1292-0.1531,4.6392-0.4551
			c6.1866-1.2373,11.5109-5.5785,14.6077-11.9105c4.6756-9.5601,3.9622-22.2773-1.9084-34.0187
			C197.8742,32.9337,193.7087,30.3797,189.1836,30.3797L189.1836,30.3797z"/>
	</g>
	<path style="fill:#441818;" d="M88.7129,149.3691c-0.9712,0-1.9556-0.2363-2.8677-0.7334
		c-22.5288-12.29-40.0186-6.4053-46.4922-3.3047c-2.9888,1.4326-6.5718,0.1689-8.0034-2.8193
		c-1.4312-2.9883-0.1685-6.5723,2.8198-8.0029c8.1387-3.8984,30.0269-11.3516,57.4219,3.5918
		c2.9092,1.5869,3.981,5.2314,2.394,8.1406C92.8965,148.2383,90.8374,149.3691,88.7129,149.3691z"/>
	<g>
		<path style="fill:#F7D5D5;" d="M71.7873,136.7817c-2.1948,12.6897-31.491,49.3099-48.5804,37.1031s21.7256-22.938,24.2902-37.1031
			C64.7098,134.8233,71.7873,136.7817,71.7873,136.7817z"/>
		<path style="fill:#441818;" d="M30.9624,182.3457c-4.9185,0-8.6543-1.7295-11.2427-3.5781
			c-4.5273-3.2344-6.8301-7.0352-6.8447-11.2988c-0.0269-7.8896,7.6606-13.46,15.7988-19.3574
			c5.1851-3.7578,12.2866-8.9033,12.9194-12.3984c0.4712-2.6055,2.5952-4.5938,5.2256-4.8936
			c17.855-2.0293,25.7295-0.0518,26.5684,0.1787c2.9731,0.8232,4.8379,3.7656,4.312,6.8057
			c-1.9604,11.3359-19.6025,35.3467-36.8101,42.4131C37.1655,181.7451,33.8589,182.3457,30.9624,182.3457z M24.9106,167.3447
			c0.1499,0.2363,0.5967,0.8096,1.7837,1.6572c0.8945,0.6406,3.6191,2.5859,9.6362,0.1143
			c10.6201-4.3613,22.0522-17.999,27.0483-27.1758c-2.8677-0.0732-6.6797,0.002-11.5386,0.4307
			c-3.0903,6.0117-9.6958,10.7979-16.125,15.457C32.1548,160.4082,25.6016,165.1572,24.9106,167.3447z"/>
	</g>
</g>
</svg>
