<?xml version="1.0" encoding="utf-8"?>
<!-- Generator: Adobe Illustrator 26.5.0, SVG Export Plug-In . SVG Version: 6.00 Build 0)  -->
<svg version="1.1" id="Layer_1" xmlns="http://www.w3.org/2000/svg" xmlns:xlink="http://www.w3.org/1999/xlink" x="0px" y="0px"
	 viewBox="0 0 500 500" style="enable-background:new 0 0 500 500;" xml:space="preserve">
<g id="Walk_2">
	<g>
		
			<rect x="101.6064" y="39.5585" transform="matrix(0.0832 -0.9965 0.9965 0.0832 41.8542 422.5019)" style="fill:#FFFFFF;" width="297.8903" height="297.8903"/>
		<path d="M121.8,36.3l281,23.5l-23.5,281l-281-23.5L121.8,36.3 M107.1,19L81,331.9L393.9,358L420,45.2L107.1,19L107.1,19z"/>
	</g>
	<line style="fill:none;stroke:#000000;stroke-width:16;stroke-miterlimit:10;" x1="280.4" y1="480" x2="304.7" y2="335.2"/>
	<line style="fill:none;stroke:#000000;stroke-width:16;stroke-miterlimit:10;" x1="186.1" y1="481" x2="186.1" y2="334.2"/>
	<polygon points="309.3,203.6 307.2,228.4 246.5,223.3 	"/>
	<polygon points="133.7,189 131.7,213.7 192.4,218.8 	"/>
	<polygon points="150.3,262.1 214.9,250.9 274.5,267 	"/>
</g>
</svg>
