<?xml version="1.0" encoding="utf-8"?>
<!-- Generator: Adobe Illustrator 26.5.1, SVG Export Plug-In . SVG Version: 6.00 Build 0)  -->
<svg version="1.1" id="Layer_1" xmlns="http://www.w3.org/2000/svg" xmlns:xlink="http://www.w3.org/1999/xlink" x="0px" y="0px"
	 viewBox="0 0 500 500" style="enable-background:new 0 0 500 500;" xml:space="preserve">
<g>
	<path style="fill:#6AC654;" d="M374.2971,119.2407C257.3149,82.3833,155.2332,296.0058,91.968,364.5431
		c-19.014,20.5985-55.3863,33.6027-76.4329,53.1263c-12.4871,11.5835-4.1837,32.4981,12.8488,32.4981h383.2017
		c8.2247,0,13.1492-6.5027,17.9369-13.1902C494.6342,346.0297,543.2318,172.4667,374.2971,119.2407z"/>
	<path style="fill:#1E3517;" d="M411.5859,456.168H28.3838c-10.2744,0-19.3423-6.1904-23.1021-15.7705
		c-3.7974-9.6777-1.4321-20.0723,6.1729-27.127c10.2891-9.5449,23.9424-17.5303,37.1455-25.252
		c14.4595-8.457,29.4116-17.2021,38.959-27.5449c15.3857-16.668,32.9341-41.8213,53.2534-70.9463
		c30.9263-44.3291,65.9785-94.5723,104.96-130.9785c46.3828-43.3188,89.0166-58.0469,130.3271-45.0308
		c58.0059,18.2759,95.4541,51.6226,111.3047,99.1143c11.4258,34.2363,10.9678,75.7915-1.3262,120.1724
		c-10.3369,37.3203-28.6904,75.5566-51.6768,107.666C429.6582,447.0947,423.1621,456.168,411.5859,456.168z M347.084,121.0073
		c-29.2334,0-59.9316,15.3149-93.1211,46.3115c-38.0552,35.5415-72.7227,85.2329-103.3091,129.0747
		c-20.5708,29.4854-38.3359,54.9492-54.2773,72.2188c-10.7617,11.6592-26.499,20.8633-41.7178,29.7646
		c-12.6445,7.3955-25.7197,15.042-35.043,23.6904c-4.668,4.3301-4.6943,10.0439-3.1631,13.9463
		c1.5469,3.9424,5.4937,8.1543,11.9312,8.1543h383.2021c5.0322,0,8.4375-4.2305,13.0576-10.6836
		c22.1885-30.9922,39.8994-67.8848,49.8701-103.8828c11.6543-42.0732,12.1758-81.2065,1.5078-113.1704
		c-14.5645-43.6382-49.3965-74.4126-103.5273-91.4678C364.1338,122.3296,355.6709,121.0073,347.084,121.0073z"/>
</g>
<g>
	<path style="fill:#8DD875;" d="M128.7113,415.4549c-14.0741,0-21.1363-16.7354-11.5444-27.0347
		c0.1025-0.11,0.2047-0.2203,0.3068-0.3308c17.2704-18.71,35.5556-44.9185,56.7266-75.266
		c48.0236-68.8365,113.7945-163.1108,172.8579-163.1108c5.6792,0,11.1776,0.8622,16.8072,2.6362
		c41.5963,13.1065,66.7517,34.2595,76.9011,64.668c17.8069,53.359,5.9235,132.8418-33.6284,191.3594
		c-2.9866,4.4188-7.9555,7.0787-13.2889,7.0787H128.7113z"/>
</g>
<g>
	<path style="fill:#B0EF9E;" d="M444.2197,226.6777c-3.0527,0-5.6631-2.3188-5.9648-5.4194
		c-1.6973-17.4517-16.3242-36.2812-31.3018-40.2949c-3.2012-0.8574-5.1006-4.1479-4.2432-7.3486
		c0.8584-3.2012,4.1533-5.1021,7.3486-4.2422c19.9326,5.3413,37.9385,28.0962,40.1396,50.7236
		c0.3213,3.2983-2.0928,6.2319-5.3906,6.5527C444.6104,226.6685,444.4141,226.6777,444.2197,226.6777z"/>
</g>
<g>
	<path style="fill:#1E3517;" d="M356.8438,297.3643c-2.9082,0-5.4619-2.1191-5.9219-5.083
		c-1.1377-7.3457-8.0029-11.042-10.9014-12.29c-6.6963-2.8838-14.2129-2.7393-18.707,0.3604
		c-2.7275,1.8818-6.4639,1.1963-8.3457-1.5312s-1.1963-6.4639,1.5312-8.3457c7.8818-5.4385,19.7646-6.0283,30.2666-1.5049
		c10.002,4.3066,16.5684,12.1338,18.0156,21.4756c0.5068,3.2744-1.7363,6.3398-5.0117,6.8477
		C357.459,297.3408,357.1494,297.3643,356.8438,297.3643z"/>
</g>
<g>
	<path style="fill:#1E3517;" d="M459.1729,340.7695c-2.8574,0-5.3896-2.0488-5.9023-4.96
		c-1.29-7.3223-8.2305-10.876-11.1553-12.0645c-6.7539-2.7461-14.2666-2.4453-18.6943,0.7461
		c-2.6865,1.9385-6.4365,1.3301-8.375-1.3594c-1.9375-2.6875-1.3291-6.4375,1.3594-8.375
		c7.7666-5.5986,19.6309-6.4355,30.2275-2.1289c10.0889,4.0996,16.8164,11.79,18.4561,21.0996
		c0.5752,3.2637-1.6045,6.375-4.8682,6.9502C459.8682,340.7393,459.5186,340.7695,459.1729,340.7695z"/>
</g>
<g>
	<path style="fill:#1E3517;" d="M384.8291,341.3271c-3.1689,0.001-6.4141-0.8896-9.5322-3.0488
		c-7.4414-5.1504-9.9775-15.2012-6.0303-23.8994c1.3701-3.0176,4.9268-4.3564,7.9434-2.9844
		c3.0176,1.3701,4.3535,4.9258,2.9844,7.9434c-1.7539,3.8652-0.3564,7.4902,1.9316,9.0732c2.7881,1.9307,6.6455,0.7764,10.583-3.166
		c2.3408-2.3438,6.1387-2.3477,8.4854-0.0049c2.3447,2.3418,2.3467,6.1406,0.0049,8.4854
		C397.124,337.8057,391.1299,341.3271,384.8291,341.3271z"/>
</g>
<g>
	<path style="fill:#B0EF9E;" d="M444.0811,363.2305c-0.8291,0-1.6719-0.1729-2.4756-0.5381l-18.9658-8.6074
		c-3.0176-1.3701-4.3535-4.9258-2.9844-7.9434s4.9258-4.3555,7.9434-2.9844l18.9658,8.6074
		c3.0176,1.3701,4.3535,4.9258,2.9844,7.9434C448.5439,361.9209,446.3633,363.2305,444.0811,363.2305z"/>
</g>
<g>
	<path style="fill:#B0EF9E;" d="M330.2861,311.5869c-0.8291,0-1.6719-0.1729-2.4756-0.5381l-18.9658-8.6074
		c-3.0176-1.3701-4.3535-4.9258-2.9844-7.9434c1.3701-3.0176,4.9268-4.3564,7.9434-2.9844l18.9658,8.6074
		c3.0176,1.3701,4.3535,4.9258,2.9844,7.9434C334.749,310.2773,332.5684,311.5869,330.2861,311.5869z"/>
</g>
</svg>
