<?xml version="1.0" encoding="utf-8"?>
<!-- Generator: Adobe Illustrator 26.5.1, SVG Export Plug-In . SVG Version: 6.00 Build 0)  -->
<svg version="1.1" id="Layer_1" xmlns="http://www.w3.org/2000/svg" xmlns:xlink="http://www.w3.org/1999/xlink" x="0px" y="0px"
	 viewBox="0 0 500 500" style="enable-background:new 0 0 500 500;" xml:space="preserve">
<g>
	<path style="fill:#6AC654;" d="M398.6235,354.1451c-9.0223,15.923-25.8389,29.278-47.3452,39.9084
		c-18.4913,21.5285-32.2483,58.2212-49.8017,43.0796c-6.6998-5.8064-8.5757-14.0919-7.8164-23.2929
		c-48.6851,11.278-104.874,13.2432-150.5441,4.9578c-26.2408,12.8636-46.0722,69.2089-65.9259,49.3552
		c-16.2359-16.2359,1.1613-46.7422,11.5014-67.2658c-37.3849-20.7471-49.4892-55.8315-8.1291-106.7277
		c67.9805-83.6579,94.0203-282.8425,212.3831-284.6291C447.7329,7.2078,454.7901,255.0552,398.6235,354.1451z"/>
	<path style="fill:#1E3517;" d="M85.9614,478.3496c-4.686,0-9.0596-1.999-13.0142-5.9531
		c-18.02-18.0205-3.2515-47.4678,7.8394-69.2021c-17.5791-10.9834-28.0669-24.748-31.2026-40.9766
		c-4.0864-21.1494,4.7695-45.3203,26.3223-71.8428c22.666-27.8936,40.5073-68.7935,59.396-112.0947
		c18.1533-41.6147,36.9238-84.646,61.0796-117.4438c27.9888-38.0034,59.5459-56.748,96.4727-57.3057
		c47.3965-0.6943,85.7285,21.459,111.0098,64.1108c47.9971,80.9736,39.5742,219.6064-0.0215,289.4629
		c-9.0762,16.0186-25.4873,30.0684-48.7842,41.7695c-4.6396,5.5527-9.0625,12.1885-13.3467,18.6162
		c-9.8369,14.7588-18.333,27.5039-29.707,29.0557c-5.041,0.6846-9.9033-0.9502-14.4473-4.8701
		c-5.8398-5.0605-9.1494-11.8887-9.8926-20.3701c-47.1494,9.8896-100.0806,11.3096-143.5586,3.7617
		c-8.7686,5.0674-17.1953,15.915-25.3608,26.4258c-10.8828,14.0088-20.2817,26.1074-31.7393,26.8242
		C86.6562,478.3389,86.3081,478.3496,85.9614,478.3496z M295.1221,15.5137c-0.6943,0-1.3877,0.0054-2.0869,0.0161
		c-74.1348,1.1187-111.042,85.7266-146.7334,167.5483c-19.2256,44.0728-37.3843,85.7012-61.083,114.8652
		c-19.209,23.6377-27.2344,44.4971-23.8525,61.9971c2.7173,14.0635,12.8901,26.0742,30.2368,35.7012l5.0405,2.7969l-2.5938,5.1484
		c-0.7212,1.4316-1.4766,2.9121-2.2524,4.4316c-9.4492,18.5127-22.3906,43.8662-10.3647,55.8926
		c2.3047,2.3037,3.8574,2.4814,4.8242,2.4297c6.0527-0.3789,15.063-11.9766,23.0122-22.21
		c9.5137-12.2461,19.3511-24.9092,31.2061-30.7207l1.7715-0.8682l1.9404,0.3525c44.5879,8.0889,99.9595,6.2568,148.1187-4.8994
		l8.0098-1.8555l-0.6758,8.1934c-0.6865,8.333,1.1992,14.3076,5.7666,18.2656c2.4521,2.1162,4.0156,2.1885,4.9766,2.0576
		c6.0127-0.8203,14.1572-13.04,21.3438-23.8213c4.7207-7.083,9.6025-14.4062,15-20.6904l0.7969-0.9277l1.0957-0.542
		c21.7002-10.7266,36.7676-23.3389,44.7832-37.4873l0.001-0.001c18.4736-32.5918,30.1631-82.8359,31.2695-134.4019
		c1.208-56.3247-9.8477-107.1182-31.1309-143.0239C370.6279,35.1035,337.5215,15.5137,295.1221,15.5137z"/>
</g>
<g>
	<path style="fill:#8DD875;" d="M203.6431,390.3859c-45.7839-0.0112-155.9861-7.3567-97.0849-75.1014
		c59.5265-66.4122,101.2311-278.9539,188.5402-272.2702c124.7168,6.5495,122.6641,214.0956,74.3876,294.6102
		C340.0005,386.7999,259.3845,388.2161,203.6431,390.3859z"/>
</g>
<g>
	<path style="fill:#B0EF9E;" d="M385.3633,176.8735c-2.9756,0-5.5576-2.2124-5.9443-5.2422
		c-0.4189-3.2871,1.9072-6.2915,5.1943-6.71l19.9385-2.54c3.2773-0.4243,6.29,1.9058,6.71,5.1934
		c0.4189,3.2871-1.9072,6.2915-5.1943,6.71l-19.9385,2.54C385.8721,176.8579,385.6162,176.8735,385.3633,176.8735z"/>
</g>
<g>
	<path style="fill:#B0EF9E;" d="M265.7344,192.1123c-2.9756,0-5.5586-2.2124-5.9443-5.2422
		c-0.4189-3.2871,1.9072-6.2915,5.1943-6.7104l19.9375-2.5396c3.2773-0.418,6.291,1.9062,6.71,5.1938
		c0.4189,3.2871-1.9072,6.2915-5.1943,6.7104L266.5,192.064C266.2432,192.0967,265.9873,192.1123,265.7344,192.1123z"/>
</g>
<g>
	<circle style="fill:#6AC654;" cx="292.6999" cy="473.7363" r="16.7495"/>
	<path style="fill:#1E3517;" d="M292.7002,496.4854c-12.5439,0-22.75-10.2051-22.75-22.749s10.2061-22.75,22.75-22.75
		s22.749,10.2061,22.749,22.75S305.2441,496.4854,292.7002,496.4854z M292.7002,462.9863c-5.9277,0-10.75,4.8223-10.75,10.75
		c0,5.9268,4.8223,10.749,10.75,10.749c5.9268,0,10.749-4.8223,10.749-10.749C303.4492,467.8086,298.627,462.9863,292.7002,462.9863
		z"/>
</g>
<g>
	<path style="fill:#B0EF9E;" d="M365.7285,89.6768c-2.248,0-4.4033-1.269-5.4277-3.4365
		c-7.4707-15.7979-26.9629-28.3032-41.7373-26.7529c-3.3018,0.3506-6.2471-2.0474-6.5928-5.3418
		c-0.3447-3.2959,2.0469-6.2476,5.3428-6.5928c19.9277-2.0923,44.0957,12.9629,53.835,33.5576
		c1.417,2.9956,0.1367,6.5723-2.8584,7.9888C367.4609,89.4912,366.5879,89.6768,365.7285,89.6768z"/>
</g>
<g>
	<path style="fill:#1E3517;" d="M340.7148,199.4619c-8.373,0-14.9326-8.521-14.9326-19.3994s6.5596-19.3999,14.9326-19.3999
		c8.374,0,14.9336,8.5215,14.9336,19.3999S349.0889,199.4619,340.7148,199.4619z M340.7148,172.6626
		c-0.5596,0-2.9326,2.4663-2.9326,7.3999c0,4.9331,2.373,7.3994,2.9326,7.3994c0.5605,0,2.9336-2.4663,2.9336-7.3994
		C343.6484,175.1289,341.2754,172.6626,340.7148,172.6626z"/>
</g>
<g>
	<path style="fill:#1E3517;" d="M394.73,143.21c0,6.39-5.2,11.59-11.58,11.59c-6.39,0-11.59-5.2-11.59-11.59
		c0-6.38,5.2-11.58,11.59-11.58C389.53,131.63,394.73,136.83,394.73,143.21z"/>
</g>
<g>
	<circle style="fill:#1E3517;" cx="279.3" cy="154.38" r="11.58"/>
</g>
</svg>
