<?xml version="1.0" encoding="utf-8"?>
<!-- Generator: Adobe Illustrator 26.5.1, SVG Export Plug-In . SVG Version: 6.00 Build 0)  -->
<svg version="1.1" id="Layer_1" xmlns="http://www.w3.org/2000/svg" xmlns:xlink="http://www.w3.org/1999/xlink" x="0px" y="0px"
	 viewBox="0 0 500 500" style="enable-background:new 0 0 500 500;" xml:space="preserve">
<g>
	<path style="fill:#6AC654;" d="M335.6436,51.0881c-135.4978,0-162.7555,228.515-232.6472,304.231
		c-21.0055,22.756-61.1876,37.1223-84.4385,58.6908c-13.7951,12.7968-4.6219,35.902,14.1946,35.902h402.8862
		c9.0862,0,17.1374-5.8893,19.8156-14.5718C495.7622,304.6697,512.8697,51.0881,335.6436,51.0881z"/>
	<path style="fill:#1E3517;" d="M435.6387,455.9121H32.7524c-11.0903,0-20.8789-6.6816-24.9365-17.0234
		c-4.0991-10.4453-1.5464-21.6641,6.6616-29.2773c11.3164-10.498,26.3696-19.3018,40.9268-27.8164
		c16.0137-9.3652,32.5723-19.0498,43.1836-30.5449c23.3555-25.3018,42.1533-68.9775,62.0552-115.2178
		c38.5215-89.5015,82.1821-190.9443,175.0005-190.9443c47.7988,0,85.2012,17.8403,111.1689,53.0254
		c27.4473,37.1904,41.6855,94.3584,41.1748,165.3242c-0.4072,56.4766-10.1748,119.7773-26.7998,173.6709
		C457.7188,448.3555,447.4512,455.9121,435.6387,455.9121z M335.6436,57.0879c-37.6719,0-70.0166,18.9229-98.8833,57.8506
		c-26.0591,35.1411-45.9038,81.2485-65.0947,125.8374c-20.3193,47.2104-39.5117,91.8022-64.2603,118.6128
		c-11.8252,12.8105-29.1694,22.9551-45.9424,32.7646c-13.9985,8.1875-28.4736,16.6533-38.8242,26.2549
		c-5.3882,4.999-5.4194,11.5928-3.6523,16.0967c1.7847,4.5479,6.3379,9.4072,13.7661,9.4072h402.8862
		c6.5156,0,12.1748-4.1553,14.082-10.3408c16.2939-52.8223,25.8682-114.8652,26.2666-170.2207
		c0.3428-47.6626-6.1152-113.7842-38.8301-158.1113C413.5771,73.2881,379.4229,57.0879,335.6436,57.0879z"/>
</g>
<g>
	<path style="fill:#8DD875;" d="M143.5909,411.5634c-15.5488,0-23.3513-18.4886-12.755-29.8676
		c0.1132-0.1216,0.2262-0.2434,0.3389-0.3655c28.5042-30.8785,48.7594-77.9415,70.2043-127.767
		C242.741,157.4626,276.583,89.4366,335.6436,89.4366c34.5161,0,58.8372,11.5857,76.5359,36.461
		c22.0204,30.9471,33.1242,83.4303,31.2679,147.78c-1.1727,40.6723-7.4624,84.92-17.4223,124.5775
		c-1.969,7.8402-9.0497,13.3084-17.1334,13.3084H143.5909z"/>
</g>
<g>
	<path style="fill:#1E3517;" d="M291.5088,257.3682c-1.0518,0-2.1162-0.2764-3.084-0.8574
		c-2.8398-1.7061-3.7598-5.3926-2.0537-8.2329c5.3379-8.8872,16.8135-14.7852,29.2344-15.0269
		c0.2705-0.0054,0.542-0.0078,0.8115-0.0078c11.4531,0,21.1064,4.7476,26.5781,13.1025c1.8154,2.7725,1.04,6.4912-1.7324,8.3066
		c-2.7744,1.8154-6.4932,1.0391-8.3066-1.7324c-3.2891-5.0229-9.5234-7.832-17.1182-7.6709
		c-8.2598,0.1602-15.9678,3.8608-19.1797,9.208C295.5332,256.3301,293.5459,257.3682,291.5088,257.3682z"/>
</g>
<g>
	<path style="fill:#1E3517;" d="M414.3115,255.2734c-1.0117,0-2.0361-0.2568-2.9766-0.7949c-2.875-1.6475-3.8711-5.314-2.2236-8.189
		c5.1533-8.9956,16.5039-15.1294,28.918-15.627c11.7979-0.4741,21.8789,4.0933,27.6543,12.5273
		c1.8721,2.7344,1.1729,6.4683-1.5615,8.3403c-2.7354,1.874-6.4688,1.1709-8.3408-1.561
		c-3.3906-4.9531-9.6709-7.6235-17.2715-7.3164c-8.2559,0.3311-15.8857,4.1895-18.9863,9.6021
		C418.415,254.1895,416.3926,255.2734,414.3115,255.2734z"/>
</g>
<g>
	<path style="fill:#1E3517;" d="M381.3379,288.083c-1.124,0-2.2207-0.1025-3.2764-0.293
		c-9.5381-1.7305-16.4609-10.4238-16.4609-20.6729c0-3.3135,2.6865-6,6-6s6,2.6865,6,6c0,5.0342,3.3213,8.2695,6.6025,8.8652
		c3.958,0.7188,7.6562-2.4287,9.9014-8.415c1.1631-3.1035,4.625-4.6729,7.7246-3.5117c3.1025,1.1641,4.6748,4.6221,3.5117,7.7246
		C396.8096,283.8623,388.5469,288.083,381.3379,288.083z"/>
</g>
<g>
	<path style="fill:#B0EF9E;" d="M455.8018,282.0654H432.793c-3.3135,0-6-2.6865-6-6s2.6865-6,6-6h23.0088c3.3135,0,6,2.6865,6,6
		S459.1152,282.0654,455.8018,282.0654z"/>
</g>
<g>
	<path style="fill:#B0EF9E;" d="M317.748,282.0654h-23.0098c-3.3135,0-6-2.6865-6-6s2.6865-6,6-6h23.0098c3.3135,0,6,2.6865,6,6
		S321.0615,282.0654,317.748,282.0654z"/>
</g>
<g>
	<path style="fill:#B0EF9E;" d="M422.5332,149.4795c-2.5771,0-4.959-1.6729-5.7422-4.2671
		c-5.7656-19.0947-25.5312-36.2036-43.1602-37.3594c-3.3066-0.2168-5.8115-3.0732-5.5947-6.3799
		c0.2168-3.3062,3.0703-5.8135,6.3799-5.5947c22.5088,1.4761,46.6719,22.0513,53.8633,45.8652
		c0.958,3.1719-0.8379,6.5205-4.0098,7.478C423.6914,149.3965,423.1074,149.4795,422.5332,149.4795z"/>
</g>
</svg>
