<?xml version="1.0" encoding="utf-8"?>
<!-- Generator: Adobe Illustrator 26.5.1, SVG Export Plug-In . SVG Version: 6.00 Build 0)  -->
<svg version="1.1" id="Layer_1" xmlns="http://www.w3.org/2000/svg" xmlns:xlink="http://www.w3.org/1999/xlink" x="0px" y="0px"
	 viewBox="0 0 500 500" style="enable-background:new 0 0 500 500;" xml:space="preserve">
<g>
	<path style="fill:#6AC654;" d="M267.7786,477.0692c-21.3499-0.249-9.4061-21.2552-5.9331-34.9356
		c1.3153-5.1811-2.8188-10.1094-8.1428-9.6303c-36.9711,3.3274-74.5448,1.8156-106.3397-4.9063
		c-2.6509-0.5604-5.4255,0.2388-7.2564,2.236c-6.9955,7.6307-14.0129,10.9012-21.755,4.2193
		c-4.2934-3.7137-6.63-8.442-7.578-13.7791c-0.4477-2.5202-1.9541-4.7435-4.2671-5.8399
		c-43.1916-20.4733-59.5265-57.1243-15.1423-111.7409c68.9175-84.811,95.3162-286.7412,215.3106-288.5524
		c156.921-2.3547,164.0754,248.909,107.1346,349.3647c-11.7379,20.7152-35.6233,36.5682-67.5414,48.9053
		S289.1285,477.3182,267.7786,477.0692z"/>
	<path style="fill:#1E3517;" d="M267.9346,483.0703c-0.0752,0-0.1504-0.001-0.2266-0.001l0,0
		c-7.2852-0.085-12.5234-2.3037-15.5713-6.5938c-5.3906-7.5879-1.7437-18.4551,1.4736-28.042
		c0.9414-2.8037,1.8301-5.4521,2.4199-7.7764c0.2002-0.791-0.1387-1.3418-0.3594-1.6006c-0.2549-0.2988-0.7051-0.6357-1.4307-0.5781
		c-38.1807,3.4385-76.5781,1.6572-108.1182-5.0117c-0.6245-0.1318-1.2349,0.0303-1.5933,0.4209
		c-12.978,14.1582-23.5317,10.375-30.0972,4.707c-5.0957-4.4072-8.312-10.2168-9.5659-17.2715
		c-0.1245-0.7031-0.4712-1.251-0.9277-1.4668c-24.541-11.6338-39.1953-27.29-43.5571-46.5352
		c-4.9409-21.8008,3.917-46.8369,26.3271-74.4131c22.9858-28.2861,41.0752-69.7554,60.2266-113.6592
		c18.4014-42.1836,37.4292-85.8042,61.9121-119.0469c28.3584-38.5049,60.3291-57.4966,97.7373-58.0615
		c0.7441-0.0107,1.4902-0.0166,2.2295-0.0166c46.9414,0,85.0215,22.4272,110.2383,64.9697
		c48.6436,82.0659,40.1084,222.5703-0.0225,293.3701c-11.8428,20.8984-34.9355,37.7588-70.5977,51.543
		c-14.4902,5.6006-28.3721,21.292-40.6191,35.1357C293.6123,469.1943,281.3369,483.0703,267.9346,483.0703z M267.8486,471.0693
		c0.0273,0.001,0.0566,0.001,0.084,0.001c7.999,0,19.6357-13.1543,30.8926-25.8789c13.1543-14.8701,28.0645-31.7236,45.2803-38.3779
		c32.5127-12.5664,54.208-28.1328,64.4844-46.2666c18.7344-33.0537,30.5889-84.0039,31.7109-136.2949
		c1.2246-57.1162-9.9883-108.6255-31.5723-145.0391c-23.626-39.8589-57.9062-59.7607-101.9639-59.0732
		c-75.21,1.1348-112.6367,86.9336-148.8311,169.9072c-19.4878,44.6753-37.895,86.873-61.9131,116.4297
		c-19.9678,24.5713-28.0215,46.168-23.9365,64.1924c3.5059,15.4688,15.9521,28.3691,36.9927,38.3428
		c3.9595,1.876,6.8027,5.6943,7.6045,10.2139c0.7695,4.332,2.6001,7.6982,5.5957,10.2891
		c2.4805,2.1416,5.5742,4.8096,13.4067-3.7363c3.2129-3.5039,8.1631-5.0518,12.9189-4.0527
		c30.4062,6.4297,67.5405,8.1357,104.5625,4.8018c4.4131-0.3984,8.7666,1.376,11.6377,4.7441
		c2.8906,3.3906,3.959,8.0029,2.8584,12.3389c-0.7012,2.7617-1.7041,5.75-2.6738,8.6406
		c-1.8408,5.4854-4.9219,14.666-3.0684,17.2754C262.5811,470.457,264.7969,471.0342,267.8486,471.0693z"/>
</g>
<g>
	<path style="fill:#8DD875;" d="M222.9337,400.2451c-46.415-0.0114-158.1362-7.4581-98.4231-76.1366
		c60.347-67.3276,102.6265-282.799,191.139-276.0231c126.4359,6.6398,124.3549,217.0467,75.413,298.6711
		C361.1706,396.6097,279.4435,398.0455,222.9337,400.2451z"/>
</g>
<g>
	<path style="fill:#B0EF9E;" d="M400.3672,183.707c-2.9756,0-5.5576-2.2124-5.9443-5.2422c-0.4189-3.2871,1.9062-6.2915,5.1943-6.71
		l20.2129-2.5752c3.2754-0.4287,6.29,1.9058,6.71,5.1934c0.4189,3.2871-1.9062,6.2915-5.1943,6.71l-20.2129,2.5752
		C400.876,183.6914,400.6201,183.707,400.3672,183.707z"/>
</g>
<g>
	<path style="fill:#B0EF9E;" d="M279.0879,199.1562c-2.9756,0-5.5576-2.2124-5.9443-5.2422
		c-0.4189-3.2871,1.9072-6.2915,5.1943-6.71l20.2139-2.5752c3.2725-0.4272,6.29,1.9058,6.71,5.1934
		c0.4189,3.2871-1.9072,6.2915-5.1943,6.71l-20.2139,2.5752C279.5967,199.1406,279.3408,199.1562,279.0879,199.1562z"/>
</g>
<g>
	<circle style="fill:#6AC654;" cx="104.9259" cy="468.8961" r="16.9803"/>
	<path style="fill:#1E3517;" d="M104.9258,491.876c-12.6714,0-22.9805-10.3086-22.9805-22.9795
		c0-12.6719,10.3091-22.9805,22.9805-22.9805s22.9805,10.3086,22.9805,22.9805C127.9062,481.5674,117.5972,491.876,104.9258,491.876
		z M104.9258,457.916c-6.0547,0-10.9805,4.9258-10.9805,10.9805c0,6.0537,4.9258,10.9795,10.9805,10.9795
		s10.9805-4.9258,10.9805-10.9795C115.9062,462.8418,110.9805,457.916,104.9258,457.916z"/>
</g>
<g>
	<path style="fill:#B0EF9E;" d="M387.2539,95.3086c-2.248,0-4.4033-1.269-5.4277-3.4365
		c-7.5879-16.0459-27.4023-28.7432-42.3965-27.1689c-3.2842,0.3481-6.2471-2.0464-6.5928-5.3418
		c-0.3447-3.2959,2.0469-6.2476,5.3428-6.5928c20.1973-2.1123,44.6357,13.125,54.4941,33.9736
		c1.417,2.9956,0.1367,6.5723-2.8584,7.9893C388.9863,95.123,388.1133,95.3086,387.2539,95.3086z"/>
</g>
<g>
	<path style="fill:#1E3517;" d="M362.2119,207.3467c-8.4424,0-15.0557-8.6025-15.0557-19.584
		c0-10.9819,6.6133-19.5845,15.0557-19.5845c8.4434,0,15.0566,8.6025,15.0566,19.5845
		C377.2686,198.7441,370.6553,207.3467,362.2119,207.3467z M362.2119,180.1782c-0.7363,0-3.0557,2.7734-3.0557,7.5845
		s2.3193,7.584,3.0557,7.584c0.7373,0,3.0566-2.7729,3.0566-7.584S362.9492,180.1782,362.2119,180.1782z"/>
</g>
<g>
	
		<ellipse transform="matrix(0.2298 -0.9732 0.9732 0.2298 165.741 510.2427)" style="fill:#1E3517;" cx="405.23" cy="150.41" rx="11.66" ry="11.66"/>
</g>
<g>
	
		<ellipse transform="matrix(0.7071 -0.7071 0.7071 0.7071 -26.5071 259.4663)" style="fill:#1E3517;" cx="299.95" cy="161.73" rx="11.66" ry="11.66"/>
</g>
</svg>
