<?xml version="1.0" encoding="utf-8"?>
<!-- Generator: Adobe Illustrator 26.5.0, SVG Export Plug-In . SVG Version: 6.00 Build 0)  -->
<svg version="1.1" id="Layer_1" xmlns="http://www.w3.org/2000/svg" xmlns:xlink="http://www.w3.org/1999/xlink" x="0px" y="0px"
	 viewBox="0 0 500 500" style="enable-background:new 0 0 500 500;" xml:space="preserve">
<g id="Walk_1">
	<g>
		
			<rect x="101.4936" y="39.5052" transform="matrix(0.9959 -0.0904 0.0904 0.9959 -16.011 23.4119)" style="fill:#FFFFFF;" width="297.8983" height="297.8983"/>
		<path d="M378.1,35.4l25.5,280.8l-280.8,25.5L97.4,60.9L378.1,35.4 M392.6,18L80,46.4L108.4,359L421,330.7L392.6,18L392.6,18z"/>
	</g>
	<line style="fill:none;stroke:#000000;stroke-width:16;stroke-miterlimit:10;" x1="306.1" y1="481" x2="306.1" y2="334.2"/>
	<line style="fill:none;stroke:#000000;stroke-width:16;stroke-miterlimit:10;" x1="165.3" y1="478" x2="206.9" y2="337.2"/>
	<polygon points="311,193.2 313.3,218 252.5,223.5 	"/>
	<polygon points="135.6,209.2 137.8,233.9 198.6,228.4 	"/>
	<polygon points="164.5,278.3 226.3,256.1 287.8,261.6 	"/>
</g>
</svg>
