<?xml version="1.0" encoding="utf-8"?>
<!-- Generator: Adobe Illustrator 26.5.1, SVG Export Plug-In . SVG Version: 6.00 Build 0)  -->
<svg version="1.1" id="Layer_1" xmlns="http://www.w3.org/2000/svg" xmlns:xlink="http://www.w3.org/1999/xlink" x="0px" y="0px"
	 viewBox="0 0 500 500" style="enable-background:new 0 0 500 500;" xml:space="preserve">
<g>
	<path style="fill:#6AC654;" d="M336.8723,198c-135.4868,0-174.2467,93.9099-227.1496,157.9895
		c-16.3322,19.7827-61.3955,41.7975-84.6445,55.2411c-13.7939,7.9762-9.8873,35.3543,8.9277,35.3543h402.8534
		c9.0854,0,17.136-3.6708,19.814-9.0825C496.9779,356.0561,514.0839,198,336.8723,198z"/>
	<path style="fill:#1E3517;" d="M436.8594,452.585H34.0059c-10.731,0-19.2271-6.8203-22.1729-17.7998
		c-3.1216-11.6348,1.0898-23.457,10.2417-28.749c4.7266-2.7324,10.3735-5.832,16.3521-9.1133
		c22.9365-12.5889,54.3486-29.8301,66.6689-44.7539c9.3174-11.2852,18.0811-23.3574,27.3594-36.1387
		C174.6587,257.8936,222.4932,192,336.8721,192c63.7373,0,108.3701,19.835,132.6582,58.9541
		c33.1182,53.3389,20.1064,133.4639-7.4795,189.209C458.3174,447.709,448.4287,452.585,436.8594,452.585z M336.8721,204
		c-48.4111,0-88.3447,12.3516-122.084,37.7607c-29.98,22.5781-51.6577,52.4404-72.6221,81.3193
		c-9.3911,12.9365-18.2612,25.1553-27.8164,36.7295c-13.7842,16.6973-45.0371,33.8496-70.1489,47.6328
		c-5.9185,3.248-11.5083,6.3164-16.1191,8.9824c-4.9204,2.8447-6.0723,9.9814-4.6587,15.251
		c0.7188,2.6787,3.189,8.9092,10.583,8.9092h402.8535c7.5303,0,13.0576-2.959,14.4355-5.7441
		c13.2754-26.8262,22.4131-59.0459,25.0703-88.3965c3.1914-35.2461-2.6973-66.0771-17.0293-89.1602
		C437.3838,221.9272,396.1807,204,336.8721,204z"/>
</g>
<g>
	<path style="fill:#8DD875;" d="M164.0076,413.4402c-16.7309,0-25.476-21.6155-14.4901-35.4908
		c0.0843-0.1065,0.1681-0.2128,0.2512-0.3188c9.5796-12.2178,18.6333-25.3526,27.3887-38.0538
		c38.4411-55.7611,74.7511-108.4322,165.4891-108.4322c48.5516,0,81.1359,14.3886,96.8501,42.7644
		c18.6606,33.6994,13.3945,84.7876-0.7932,125.9347c-2.8363,8.226-10.0819,13.5965-18.0825,13.5965L164.0076,413.4402
		L164.0076,413.4402z"/>
</g>
<g>
	<path style="fill:#B0EF9E;" d="M433.9131,276.4209c-2.248,0.001-4.4023-1.2686-5.4277-3.4355
		c-7.0283-14.8584-25.3457-26.6157-39.2314-25.1655c-3.3018,0.3506-6.2471-2.0474-6.5928-5.3423
		c-0.3447-3.2954,2.0469-6.2471,5.3428-6.5923c19.0166-1.9907,42.0479,12.3477,51.3291,31.9692
		c1.417,2.9951,0.1377,6.5723-2.8584,7.9893C435.6465,276.2354,434.7725,276.4209,433.9131,276.4209z"/>
</g>
<g>
	<path style="fill:#B0EF9E;" d="M458.8818,363.7803h-19.0449c-3.3135,0-6-2.6865-6-6s2.6865-6,6-6h19.0449c3.3135,0,6,2.6865,6,6
		S462.1953,363.7803,458.8818,363.7803z"/>
</g>
<g>
	<path style="fill:#B0EF9E;" d="M334.0303,363.7803h-19.0449c-3.3135,0-6-2.6865-6-6s2.6865-6,6-6h19.0449c3.3135,0,6,2.6865,6,6
		S337.3438,363.7803,334.0303,363.7803z"/>
</g>
<g>
	<path style="fill:#1E3517;" d="M323.4434,341.6836c-3.1104,0.001-5.7412-2.4004-5.9766-5.5537
		c-0.2461-3.3047,2.2324-6.1836,5.5371-6.4297l8.6455-0.6445l-10.9766-5.7314c-2.9375-1.5332-4.0752-5.1582-2.541-8.0957
		c1.5342-2.9365,5.1562-4.0762,8.0957-2.541l29.626,15.4678c2.375,1.2402,3.6406,3.9053,3.0986,6.5303
		c-0.541,2.625-2.7568,4.5723-5.4297,4.7715l-29.626,2.21C323.7451,341.6787,323.5938,341.6836,323.4434,341.6836z"/>
</g>
<g>
	<path style="fill:#1E3517;" d="M458.8887,341.6836c-0.1504,0-0.3018-0.0049-0.4531-0.0166l-29.626-2.21
		c-2.6729-0.1992-4.8887-2.1465-5.4297-4.7715c-0.542-2.625,0.7236-5.29,3.0986-6.5303l29.626-15.4678
		c2.9365-1.5332,6.5625-0.3965,8.0957,2.541c1.5342,2.9375,0.3965,6.5625-2.541,8.0957l-10.9766,5.7314l8.6455,0.6445
		c3.3047,0.2461,5.7832,3.125,5.5371,6.4297C464.6299,339.2822,461.999,341.6836,458.8887,341.6836z"/>
</g>
<g>
	<path style="fill:#1E3517;" d="M408.3105,359.6416c-3.3135,0-6-2.6865-6-6c0-3.9346-2.4316-6.4814-4.7188-6.8789
		c-2.6553-0.4736-5.2383,2.041-6.9102,6.6973c-1.1211,3.1201-4.5586,4.7373-7.6748,3.6201
		c-3.1191-1.1201-4.7393-4.5566-3.6201-7.6748c4.4844-12.4854,13.4004-15.6572,20.2637-14.4648
		c8.4941,1.4785,14.6602,9.3438,14.6602,18.7012C414.3105,356.9551,411.624,359.6416,408.3105,359.6416z"/>
</g>
</svg>
