<?xml version="1.0" encoding="utf-8"?>
<!-- Generator: Adobe Illustrator 26.5.1, SVG Export Plug-In . SVG Version: 6.00 Build 0)  -->
<svg version="1.1" id="Layer_1" xmlns="http://www.w3.org/2000/svg" xmlns:xlink="http://www.w3.org/1999/xlink" x="0px" y="0px"
	 viewBox="0 0 800 600" style="enable-background:new 0 0 800 600;" xml:space="preserve">
<g>
	<rect x="215" y="77" style="fill:#4F483C;" width="8" height="45"/>
	<path style="fill:#4F483C;" d="M632.8545,249.9556c-22.123,0-44.1074-1.6353-65.9482-4.9126
		c-54.2227-8.1362-112.4932-26.9683-173.1934-55.9731c-48.4727-23.1626-98.6064-52.833-149.0098-88.187
		C158.9209,40.7134,101.2627-15.8999,100.6904-16.4648l5.6191-5.6943c0.5684,0.561,57.8394,56.7822,143.1055,116.5757
		c50.0283,35.082,99.7622,64.5117,147.8213,87.4702c59.957,28.6426,117.4414,47.23,170.8574,55.2451
		c103.207,15.4849,210.0664-6.3848,317.6113-65.0083c75.1787-40.9795,150.5186-99.8311,223.9287-174.9199l5.7207,5.5928
		c-73.9668,75.6577-149.9434,134.9912-225.8203,176.3516C803.126,226.249,717.0596,249.9556,632.8545,249.9556z"/>
	<g>
		<circle style="opacity:0.4;fill:#FF7900;" cx="218.7262" cy="138.2704" r="33.2704"/>
		<circle style="opacity:0.8;fill:#FFF8F3;" cx="218.7262" cy="138.2704" r="23.1045"/>
	</g>
	<rect x="419" y="196" style="fill:#4F483C;" width="8" height="34"/>
	<rect x="719" y="237" style="fill:#4F483C;" width="8" height="27"/>
	<g>
		<circle style="opacity:0.4;fill:#FF7900;" cx="422.7262" cy="249.2704" r="33.2704"/>
		<circle style="opacity:0.8;fill:#FFF8F3;" cx="422.7262" cy="249.2704" r="23.1045"/>
	</g>
	<g>
		<circle style="opacity:0.4;fill:#FF7900;" cx="723.7262" cy="282.2704" r="33.2704"/>
		<circle style="opacity:0.8;fill:#FFF8F3;" cx="723.7262" cy="282.2704" r="23.1045"/>
	</g>
</g>
</svg>
