<?xml version="1.0" encoding="utf-8"?>
<!-- Generator: Adobe Illustrator 26.5.1, SVG Export Plug-In . SVG Version: 6.00 Build 0)  -->
<svg version="1.1" id="Layer_1" xmlns="http://www.w3.org/2000/svg" xmlns:xlink="http://www.w3.org/1999/xlink" x="0px" y="0px"
	 viewBox="0 0 327.1 311.5" style="enable-background:new 0 0 327.1 311.5;" xml:space="preserve">
<g>
	<g>
		<path style="fill:#F7D5D5;" d="M268.1,96.1c7.3-7.1,10.5-11.3,10.4-17.4c12.3,11.9,4,22.1,4,22.1
			C276.2,104.8,271.9,101.6,268.1,96.1z"/>
		<path style="fill:#441818;" d="M278.5,78.7c12.3,11.9,4,22.1,4,22.1c-2,1.2-3.8,1.8-5.4,1.8c-3.6,0-6.4-2.7-9-6.5
			C275.4,89,278.6,84.8,278.5,78.7 M278.5,66.7c-1.6,0-3.2,0.3-4.8,1c-4.5,1.9-7.3,6.4-7.2,11.2c0,1-0.5,2.5-6.8,8.6
			c-4.2,4.1-4.9,10.6-1.5,15.4c2,2.9,8.1,11.7,18.9,11.7c4,0,7.9-1.2,11.8-3.6c1.1-0.7,2.1-1.6,3-2.6c1-1.2,4.3-5.7,5.2-12.6
			c0.8-6.4-0.3-16.1-10.2-25.7C284.6,67.9,281.6,66.7,278.5,66.7L278.5,66.7z"/>
	</g>
	<g>
		<path style="fill:#E24747;" d="M200.5,79.8c83,0,117.2,56.2,117.2,112.3s-26.9,108.7-58.6,108.7c0,0-144.3,0-155.2,0
			s-18.2-3.7-18.2-11.1s14.6-12.2,14.6-24.4s-17.1-34.2-17.1-85.4S122.4,79.8,200.5,79.8z"/>
		<path style="fill:#441818;" d="M259.1,306.8H103.9c-17.8,0-24.2-8.8-24.2-17.1c0-5.7,4.1-9.7,7.7-13.3c4.2-4.1,6.9-7.1,6.9-11.1
			c0-2.9-1.7-7.7-3.9-13.8c-5.2-14.4-13.1-36.1-13.1-71.6c0-28.3,11.1-54.5,31.2-73.6c22.3-21.2,54.1-32.5,92-32.5
			c39.8,0,72.4,12.8,94.2,37.1c18.7,20.8,29,49.7,29,81.2c0,28-6.6,56.5-18.1,78.2C293.1,293.8,276.6,306.8,259.1,306.8z
			 M200.5,85.8c-34.8,0-63.7,10.1-83.7,29.2c-17.7,16.9-27.4,39.9-27.4,64.9c0,33.4,7.5,53.9,12.4,67.5c2.7,7.5,4.7,12.8,4.7,17.9
			c0,9.4-6.1,15.4-10.5,19.7c-1.6,1.5-3.9,3.9-4.1,4.8c0,4.7,10.2,5,12.2,5h155.2c12.7,0,25.8-11,35.9-30.1
			c10.6-20,16.7-46.5,16.7-72.6c0-28.6-9.2-54.6-25.9-73.2C266.3,97.2,236.8,85.8,200.5,85.8z"/>
	</g>
	<path style="fill:#EA6C6C;" d="M135.6,273.9c-4.7,0-8.3-3.9-8.3-8.5v-0.1c0-8.7-2.7-16.3-5.9-25c-4.7-13-11.2-30.7-11.2-60.4
		c0-33.8,23.7-73.2,90.3-73.2c83.8,0,90.3,65.4,90.3,85.4c0,22.8-5.2,45.7-14.3,62.8c-7.6,14.4-15.1,19-17.5,19L135.6,273.9
		L135.6,273.9z"/>
	<g>
		<path style="fill:#F7D5D5;" d="M194.4,119.5c-10.8-1.8-16.2-3.6-19.7-9c-3.6,18,9.9,21.9,9.9,21.9
			C192.6,132.1,194.4,126.7,194.4,119.5z"/>
		<path style="fill:#441818;" d="M174.7,110.5c3.6,5.4,9,7.2,19.7,9c0,7.2-1.8,12.6-9.9,12.9C184.5,132.5,171.1,128.5,174.7,110.5
			 M174.7,98.5c-0.8,0-1.6,0.1-2.3,0.2c-4.8,0.9-8.5,4.7-9.4,9.4c-2.8,14.2,1.9,23.1,6.4,28.1c4.8,5.3,10.3,7.2,11.8,7.7
			c1.1,0.3,2.2,0.5,3.4,0.5c0.2,0,0.4,0,0.5,0c6.4-0.3,21.3-3.3,21.3-24.9c0-5.9-4.2-10.9-10-11.8c-9.6-1.6-11-2.7-11.7-3.8
			C182.4,100.5,178.6,98.5,174.7,98.5L174.7,98.5z"/>
	</g>
	
		<ellipse transform="matrix(0.9147 -0.404 0.404 0.9147 -42.1918 101.2415)" style="fill:#441818;" cx="218.8072" cy="150.5988" rx="7.2996" ry="10.9994"/>
	
		<ellipse transform="matrix(0.9147 -0.404 0.404 0.9147 -29.7023 121.2558)" style="fill:#441818;" cx="272.4778" cy="131.0108" rx="7.2996" ry="10.9994"/>
	<path style="fill:#441818;" d="M274.5,187.6c-2.4,0-4.6-1.4-5.6-3.8c-1.2-3.1,0.2-6.6,3.3-7.8c10.1-4.1,13.4-9.3,13.8-11.1
		c-1-0.4-4.1-0.6-9.7,1.2c-2.4,0.8-5,0-6.6-2s-1.7-4.7-0.4-6.8c2.7-4.5,3-7.8,1.9-8.7c-1.5-1.2-7.2-1.2-13.3,4.5
		c-2.4,2.3-6.2,2.1-8.5-0.3c-2.3-2.4-2.1-6.2,0.3-8.5c9.5-8.8,21.7-10.9,29-5c3.3,2.7,5.6,7.2,4.8,13.4h0.1c7.7,0,12,3.6,13.5,7.9
		c3.4,9.2-5.3,20.3-20.6,26.5C276,187.5,275.2,187.6,274.5,187.6z"/>
	<path style="fill:#441818;" d="M164.8,190.1L35.9,42.2c-0.1-0.2-0.3-0.3-0.4-0.5l-4.4-7c-2.2-3.5,1.6-7.6,5.3-5.8l5.9,2.9
		c0.5,0.2,0.9,0.6,1.3,1l127.4,152c1.4,1.7,1.2,4.1-0.4,5.6l0,0C168.9,192,166.3,191.8,164.8,190.1z"/>
	<g>
		<path style="fill:#E24747;" d="M35.7,41.9C77.2-4.5,167.5,0.4,213.9,44.4c-53.7-2.4-95.2,22-83,70.8C72.3,98.1,33.3,120,45.5,203
			C4,176.2-5.8,88.3,35.7,41.9z"/>
		<path style="fill:#441818;" d="M53.3,215.3l-11.1-7.2c-19.8-12.8-33.7-38.3-37.9-70c-5.1-38.2,5-75.6,26.9-100.2l0,0
			C49.9,17,78.8,4.7,112.6,3.3c40-1.7,79.5,12.1,105.4,36.7l11.7,11.1l-16.1-0.7c-31.7-1.4-57.2,6.7-69.9,22.2
			c-8.8,10.7-11.1,24.6-7,41.1l2.5,10.1l-10-2.9c-19.7-5.8-46.7-9.6-63.4,5c-15.1,13.1-19.9,38.8-14.4,76.3L53.3,215.3z M118.9,15.2
			c-1.9,0-3.8,0-5.8,0.1c-30.5,1.3-56.4,12.1-72.9,30.6l0,0c-19.7,22-28.6,55.9-24,90.6c2.8,21.2,10.6,39.6,21.6,51.9
			c-2.6-33.6,4.1-57.7,20.1-71.6c14.9-12.9,37.3-16.3,65.4-9.9c-2-16.2,1.8-30.6,11.2-42c12.6-15.5,35-24.8,62.6-26.5
			C175.6,23.8,147.3,15.2,118.9,15.2z"/>
	</g>
	<path style="fill:#EA6C6C;" d="M32.4,135.6c-1,2.6-4.8,2.3-5.2-0.5V135c-4.2-31.1,4-62.4,21.2-81.7c15.4-17.2,41-27,70.5-27
		c12.5,0,24.9,1.7,36.5,5c2.4,0.7,2.6,4.1,0.3,5C143,41.7,132.6,49.4,125,59.1c-5.6,7.2-11.3,17.7-12.9,31.8c-0.2,1.5-1.5,2.6-3,2.4
		c-4-0.4-8-0.7-11.8-0.7c-22.2,0-40.4,7.6-52.8,21.9C39.5,120.5,35.4,127.5,32.4,135.6z"/>
	<path style="fill:#F7D5D5;" d="M253.6,120.6c-1.3,0-2.6-0.4-3.7-1.3c-6.3-4.9-16.5-7.1-23.3-7.5c-3.3-0.2-5.8-3-5.7-6.3
		c0.2-3.3,3-5.8,6.3-5.7c8.9,0.5,21.4,3.4,29.9,10c2.6,2,3.1,5.8,1.1,8.4C257.2,119.8,255.4,120.6,253.6,120.6z"/>
	<path style="fill:#F7D5D5;" d="M151.5,40.8c-1,0-2.1-0.3-3-0.8c-6.9-4.1-17.2-5-24-4.5c-3.3,0.2-6.2-2.3-6.4-5.6
		c-0.2-3.3,2.3-6.2,5.6-6.4c8.9-0.6,21.7,0.6,31,6.1c2.9,1.7,3.8,5.4,2.1,8.2C155.6,39.8,153.6,40.8,151.5,40.8z"/>
</g>
</svg>
