<?xml version="1.0" encoding="utf-8"?>
<!-- Generator: Adobe Illustrator 26.5.1, SVG Export Plug-In . SVG Version: 6.00 Build 0)  -->
<svg version="1.1" id="Layer_1" xmlns="http://www.w3.org/2000/svg" xmlns:xlink="http://www.w3.org/1999/xlink" x="0px" y="0px"
	 viewBox="0 0 383.6953 228.5972" style="enable-background:new 0 0 383.6953 228.5972;" xml:space="preserve">
<g>
	<g>
		<path style="fill:#E24747;" d="M32.0922,56.3167c24.4134,0,14.6481,51.6197,37.8408,51.6197
			c18.3101,0,18.4462,56.071,6.1714,43.7285c-19.5988-22.1079-41.5709-7.4598-58.6604-31.8733S10.1201,58.758,32.0922,56.3167z"/>
		<path style="fill:#441818;" d="M79.3359,159.4307c-2.1157,0-4.75-0.7842-7.4858-3.5347l-0.2354-0.251
			c-8.1289-9.1694-16.3721-10.9199-25.917-12.9468c-10.7593-2.2847-22.9546-4.874-33.1689-19.4658
			C1.8262,107.9434-0.314,86.5024,7.2036,69.8789c5.0942-11.2642,13.9243-18.3809,24.2261-19.5254l0.6626-0.0366
			c16.9502,0,21.5815,17.0405,25.3032,30.7324c4.0034,14.73,6.6299,20.8872,12.5376,20.8872
			c4.9771,0,14.0029,2.5352,18.5356,19.5132c1.7163,6.4292,2.4536,13.938,2.0229,20.6016
			c-0.5479,8.481-2.8525,13.9458-6.8491,16.2437C82.9512,158.6924,81.3877,159.4307,79.3359,159.4307z M32.4146,62.3218
			c-7.9785,1.0723-12.3623,8.2676-14.2769,12.502c-4.854,10.7339-5.4312,27.7373,4.2222,41.5269
			c7.502,10.7178,15.5903,12.4351,25.8306,14.6094c9.3721,1.9902,19.8989,4.2256,29.9214,14.1045
			c1.0776-6.1304,0.6836-18.3936-3.4609-26.5518c-0.8682-1.709-2.6357-4.5762-4.7178-4.5762
			c-16.0347,0-20.5166-16.4897-24.1177-29.7397C41.6895,69.0166,38.8804,62.5278,32.4146,62.3218z"/>
	</g>
	<g>
		<path style="fill:#E24747;" d="M371.4147,87.3705c0,34.8625-56.1265,42.1865-70.7746,42.1865
			c-14.1844,0-24.7794,16.6743-25.4386,17.7242c-0.0244,0.0243-0.0244,0.0487-0.0244,0.0487
			c-13.2814,42.748-53.1481,73.7775-100.2662,73.7775c-57.9819,0-104.9778-46.9959-104.9778-104.9778
			S116.929,11.1518,174.9109,11.1518c44.2613,0,82.1272,27.3918,97.556,66.136c18.4078,13.2078,40.3799,15.6491,50.1453-6.323
			s12.2067-36.6202,26.8548-36.6202S371.4147,52.4838,371.4147,87.3705z"/>
		<path style="fill:#441818;" d="M174.9111,227.1074c-61.1934,0-110.978-49.7842-110.978-110.9775s49.7847-110.978,110.978-110.978
			c22.6465,0,44.4316,6.7783,63,19.6021c17.6309,12.1768,31.2383,28.9624,39.4434,48.6289
			c9.834,6.6782,19.6426,9.3433,27.1084,7.3159c5.4766-1.4868,9.7383-5.582,12.667-12.1709
			c1.8477-4.1572,3.4023-7.9844,4.9053-11.686c6.4678-15.9214,11.5762-28.4971,27.4316-28.4971
			c18.5449,0,27.9482,19.8594,27.9482,59.0259c0,40.0083-60.5576,48.1865-76.7744,48.1865c-8.373,0-16.4932,9.0449-19.9756,14.3218
			c-6.96,21.8193-20.9062,41.3892-39.3389,55.1748C222.0361,219.4814,199.0703,227.1074,174.9111,227.1074z M174.9111,17.1519
			c-54.5771,0-98.978,44.4014-98.978,98.978s44.4009,98.9775,98.978,98.9775c21.5479,0,42.0283-6.7998,59.2285-19.6631
			c16.3975-12.2642,28.8135-29.6519,35.0371-49.0391v-1.5605l1.3193-1.3369c1.0869-1.6494,3.9971-5.8008,8.21-9.8223
			c6.9414-6.626,14.5264-10.1284,21.9346-10.1284c7.7158,0,24.3896-2.0264,38.6992-7.6094
			c17.3027-6.7505,26.0752-16.3652,26.0752-28.5771c0-17.5625-2.0723-47.0259-15.9482-47.0259
			c-7.4014,0-9.9717,5.3999-16.3135,21.0132c-1.4678,3.6133-3.1318,7.709-5.0586,12.0439
			c-4.4023,9.9062-11.4873,16.4341-20.4883,18.8774c-11.3125,3.0693-25.3955-0.6157-38.6377-10.1167l-1.4268-1.0239l-0.6494-1.6313
			c-7.2422-18.1865-19.6221-33.7056-35.8018-44.8799C214.5371,23.1948,195.1104,17.1519,174.9111,17.1519z"/>
	</g>
	<g>
		<path style="fill:#F7D5D5;" d="M87.6141,15.4404c-7.4831,8.9797-4.4899,32.9257,4.4899,32.9257s14.1891-5.9066,13.081-12.6813
			S89.1107,31.9032,87.6141,15.4404z"/>
		<path style="fill:#441818;" d="M87.6141,15.4404C89.1108,31.9032,104.077,28.91,105.185,35.6847
			c1.1081,6.7748-4.1013,12.6814-13.081,12.6814S80.131,24.4201,87.6141,15.4404 M87.6155,3.4398
			c-3.5019,0-6.901,1.5356-9.22,4.3184c-8.5668,10.2801-8.6962,29.1961-3.4423,40.4134
			c5.1551,11.0063,13.7114,12.1945,17.1508,12.1945c8.1779,0,15.276-3.053,19.9866-8.5967
			c4.202-4.9451,6.0015-11.5137,4.937-18.0216c-1.4544-8.8924-8.7773-12.2894-12.7113-14.1144
			c-4.0375-1.873-4.4596-2.0688-4.7515-5.2794c-0.4394-4.8336-3.7473-8.9266-8.3811-10.3704
			C90.0083,3.6174,88.8057,3.4398,87.6155,3.4398L87.6155,3.4398z"/>
	</g>
	<g>
		<path style="fill:#F7D5D5;" d="M259.1493,17.8817c8.5928,10.3114,5.1557,37.8084-5.1557,37.8084
			c-10.3114,0-16.2933-6.7825-15.0209-14.5619C240.2451,33.3488,257.4308,36.7859,259.1493,17.8817z"/>
		<path style="fill:#441818;" d="M259.1493,17.8817c8.5928,10.3114,5.1557,37.8084-5.1557,37.8084s-16.2933-6.7825-15.0209-14.5619
			C240.2451,33.3488,257.4308,36.7859,259.1493,17.8817 M259.148,5.8811c-1.1905,0-2.3925,0.1774-3.5683,0.5438
			c-4.6339,1.4438-7.9417,5.5367-8.3811,10.3704c-0.428,4.7083-1.7099,5.303-6.4794,7.5155
			c-4.2186,1.957-12.0711,5.5997-13.5891,14.8804c-1.1378,6.9567,0.7826,13.9747,5.269,19.2545
			c5.0655,5.9613,12.7346,9.2444,21.5945,9.2444c7.6287,0,14.2196-4.7304,18.0826-12.9781
			c5.8013-12.3859,5.6955-33.2279-3.7083-44.5125C266.0492,7.4169,262.6496,5.8811,259.148,5.8811L259.148,5.8811z"/>
	</g>
	<circle style="fill:#EA6C6C;" cx="173.6902" cy="117.3503" r="80.5644"/>
	<ellipse style="fill:#441818;" cx="115.0979" cy="97.8195" rx="4.8827" ry="9.7654"/>
	<ellipse style="fill:#441818;" cx="185.897" cy="97.8195" rx="4.8827" ry="9.7654"/>
	<g>
		<path style="fill:#F7D5D5;" d="M95.5672,114.909c26.8548,14.6481,58.5923,34.1788,114.7432,7.324
			C178.5729,166.1772,127.3047,180.8253,95.5672,114.909z"/>
		<path style="fill:#441818;" d="M150.9355,165.8169c-1.543,0-3.0811-0.0674-4.6162-0.2036
			c-15.7246-1.3936-38.2314-10.8696-56.1582-48.1011c-1.1299-2.3477-0.6162-5.1567,1.2725-6.9517
			c1.8887-1.7954,4.7212-2.1641,7.0068-0.9189l2.8979,1.5864c25.7827,14.1382,55.0063,30.1626,106.3833,5.5923
			c2.4746-1.1826,5.4365-0.5391,7.1943,1.5669c1.7578,2.1055,1.8643,5.1353,0.2588,7.3584
			C196.6172,151.4414,173.4453,165.8169,150.9355,165.8169z M111.4062,130.0571c10.4102,14.3462,22.6338,22.4209,35.9727,23.603
			c13.5615,1.2056,28.3154-4.8818,41.7949-16.7812C155.6162,146.7632,131.3525,139.6445,111.4062,130.0571z"/>
	</g>
	<path style="fill:#441818;" d="M171.248,89.1729c-2.5117,0-4.8525-1.5898-5.6914-4.104c-1.0479-3.1436,0.6514-6.5415,3.7949-7.5894
		c2.3076-0.7695,9.9922-6.0044,14.7432-10.7568c2.3428-2.3433,6.1406-2.3442,8.4854-0.001c2.3438,2.3428,2.3438,6.1421,0.001,8.4854
		c-5.0811,5.082-14.4727,12.0024-19.4346,13.6562C172.5166,89.0732,171.877,89.1729,171.248,89.1729z"/>
	<path style="fill:#441818;" d="M127.3057,89.1729c-0.6289,0-1.2686-0.0996-1.8984-0.3096
		c-4.9609-1.6538-14.3525-8.5737-19.4346-13.6558c-2.3438-2.3433-2.3438-6.1421,0-8.4854c2.3418-2.3428,6.1426-2.3428,8.4844,0
		c4.7529,4.7529,12.4375,9.9878,14.7451,10.7573c3.1436,1.0479,4.8428,4.4458,3.7949,7.5894
		C132.1592,87.583,129.8174,89.1729,127.3057,89.1729z"/>
	<g>
		<path style="fill:#F7D5D5;" d="M210.3104,107.5849c1.2207,15.8687,13.4274,18.3101,13.4274,18.3101"/>
		<path style="fill:#441818;" d="M222.5615,131.7783c-0.6807-0.1357-16.6816-3.5645-18.2334-23.7334
			c-0.2539-3.3037,2.2188-6.188,5.5225-6.4424c3.2949-0.2451,6.1885,2.2188,6.4424,5.5225
			c0.8242,10.7197,7.917,12.7158,8.7227,12.9082l-0.1006-0.0215L222.5615,131.7783z"/>
	</g>
	<path style="fill:#F7D5D5;" d="M228.8955,76.2803c-2.0381,0-4.0254-1.0391-5.1504-2.9141
		c-6.5967-10.9932-20.2822-20.0371-29.9971-24.4409c-3.0176-1.3682-4.3555-4.9238-2.9873-7.9419
		c1.3682-3.0186,4.9219-4.3564,7.9424-2.9878c11.8291,5.3628,27.3223,15.8486,35.3311,29.1968
		c1.7051,2.8413,0.7842,6.5269-2.0576,8.2319C231.0107,76.0039,229.9463,76.2803,228.8955,76.2803z"/>
</g>
</svg>
