<?xml version="1.0" encoding="utf-8"?>
<!-- Generator: Adobe Illustrator 26.5.1, SVG Export Plug-In . SVG Version: 6.00 Build 0)  -->
<svg version="1.1" id="Layer_1" xmlns="http://www.w3.org/2000/svg" xmlns:xlink="http://www.w3.org/1999/xlink" x="0px" y="0px"
	 viewBox="0 0 500 500" style="enable-background:new 0 0 500 500;" xml:space="preserve">
<g>
	<path style="fill:#6AC654;" d="M336.8723,208.5221c-135.4868,0-174.2467,89.9348-227.1496,151.3022
		c-16.3322,18.9453-61.3955,40.0284-84.6445,52.9028c-13.7939,7.6386-9.8873,33.8578,8.9277,33.8578h402.8534
		c9.0854,0,17.136-3.5154,19.814-8.6981C496.9779,359.888,514.0839,208.5221,336.8723,208.5221z"/>
	<path style="fill:#1E3517;" d="M436.8594,452.585H34.0059c-10.7671,0-19.519-6.9463-22.2969-17.6963
		c-2.877-11.1348,1.4253-22.4062,10.4624-27.4111c4.7256-2.6162,10.3716-5.584,16.3491-8.7256
		c22.9365-12.0566,54.3491-28.5674,66.6577-42.8457c9.313-10.8027,18.0747-22.3613,27.3506-34.5986
		c42.2056-55.6787,90.042-118.7856,204.3433-118.7856c65.1982,0,110.3574,19.8735,134.2227,59.0688
		c31.1758,51.2012,17.8975,126.8203-9.0918,179.0498C458.2549,447.8965,448.3848,452.585,436.8594,452.585z M336.8721,214.522
		c-108.3394,0-152.2832,57.9712-194.7803,114.0347c-9.3931,12.3916-18.2651,24.0967-27.8247,35.1855
		c-13.7969,16.0039-45.0508,32.4316-70.1636,45.6318c-5.918,3.1104-11.5078,6.0479-16.1187,8.6016
		c-4.7393,2.624-5.9307,8.9844-4.6577,13.9111c0.6763,2.6152,3.0693,8.6982,10.6787,8.6982h402.8535
		c7.3018,0,13.0977-2.7725,14.4834-5.4521c13.001-25.1611,22.0703-55.4307,24.8828-83.0479
		c3.3672-33.0645-1.9512-62.1982-15.3809-84.2539C439.3066,232.458,397.5967,214.522,336.8721,214.522z"/>
</g>
<g>
	<path style="fill:#8DD875;" d="M164.0076,414.8432c-16.7309,0-25.476-20.7006-14.4901-33.9885
		c0.0843-0.102,0.1681-0.2038,0.2512-0.3054c9.5796-11.7006,18.6333-24.2795,27.3887-36.4431
		c38.4411-53.4008,74.7511-103.8425,165.4891-103.8425c48.5516,0,81.1359,13.7795,96.8501,40.9542
		c18.6606,32.273,13.3945,81.1988-0.7932,120.6041c-2.8363,7.8777-10.0819,13.021-18.0825,13.021H164.0076z"/>
</g>
<g>
	<path style="fill:#B0EF9E;" d="M433.9141,280.0469c-2.2119,0-4.3389-1.2266-5.3848-3.3438
		c-7.0156-14.2051-25.375-25.4404-39.3018-24.0449c-3.2969,0.334-6.2373-2.0742-6.5684-5.3711
		c-0.3311-3.2974,2.0732-6.2383,5.3711-6.5693c18.9619-1.8979,41.9658,11.8555,51.2588,30.6709
		c1.4668,2.9717,0.248,6.5693-2.7227,8.0371C435.7119,279.8477,434.8057,280.0469,433.9141,280.0469z"/>
</g>
<g>
	<path style="fill:#B0EF9E;" d="M458.8818,363.708h-19.0449c-3.3135,0-6-2.6865-6-6s2.6865-6,6-6h19.0449c3.3135,0,6,2.6865,6,6
		S462.1953,363.708,458.8818,363.708z"/>
</g>
<g>
	<path style="fill:#B0EF9E;" d="M334.0303,363.708h-19.0449c-3.3135,0-6-2.6865-6-6s2.6865-6,6-6h19.0449c3.3135,0,6,2.6865,6,6
		S337.3438,363.708,334.0303,363.708z"/>
</g>
<g>
	<path style="fill:#1E3517;" d="M323.4443,342.5469c-3.1191,0-5.7529-2.4131-5.9785-5.5723
		c-0.2363-3.3057,2.252-6.1768,5.5566-6.4121l7.7871-0.5566l-10.043-5.0215c-2.9639-1.4814-4.165-5.0859-2.6826-8.0498
		c1.4814-2.9619,5.0811-4.1641,8.0498-2.6826l29.626,14.8125c2.417,1.208,3.7285,3.8848,3.2012,6.5361
		c-0.5264,2.6504-2.7607,4.6221-5.457,4.8145l-29.626,2.1162C323.7324,342.542,323.5879,342.5469,323.4443,342.5469z"/>
</g>
<g>
	<path style="fill:#1E3517;" d="M458.8877,342.5469c-0.1436,0-0.2881-0.0049-0.4336-0.0156l-29.626-2.1162
		c-2.6963-0.1924-4.9307-2.1641-5.457-4.8145c-0.5273-2.6514,0.7842-5.3281,3.2012-6.5361l29.626-14.8125
		c2.9648-1.4814,6.5684-0.2803,8.0498,2.6826c1.4824,2.9639,0.2812,6.5684-2.6826,8.0498l-10.043,5.0215l7.7871,0.5566
		c3.3047,0.2354,5.793,3.1064,5.5566,6.4121C464.6406,340.1338,462.0068,342.5469,458.8877,342.5469z"/>
</g>
<g>
	<path style="fill:#1E3517;" d="M408.3105,363.5762c-3.3135,0-6-2.6865-6-6c0-3.5996-2.3223-5.9043-4.6152-6.3203
		c-2.7402-0.4961-5.375,1.8623-7.043,6.3105c-1.1641,3.1035-4.6201,4.6729-7.7246,3.5117
		c-3.1025-1.1631-4.6748-4.6221-3.5117-7.7246c2.8516-7.6055,9.9092-15.8096,20.4199-13.9053
		c8.3867,1.5205,14.4746,9.1445,14.4746,18.1279C414.3105,360.8896,411.624,363.5762,408.3105,363.5762z"/>
</g>
</svg>
