<?xml version="1.0" encoding="utf-8"?>
<!-- Generator: Adobe Illustrator 26.5.0, SVG Export Plug-In . SVG Version: 6.00 Build 0)  -->
<svg version="1.1" id="Layer_1" xmlns="http://www.w3.org/2000/svg" xmlns:xlink="http://www.w3.org/1999/xlink" x="0px" y="0px"
	 viewBox="0 0 500 500" style="enable-background:new 0 0 500 500;" xml:space="preserve">
<g>
	<rect x="101.5312" y="39.5503" style="fill:#FFFFFF;" width="297.9375" height="297.938"/>
	<path d="M391.4688,47.5503v281.9375H109.5312V47.5503H391.4688 M407.4688,31.5503H93.5312v313.9375h313.9376L407.4688,31.5503
		L407.4688,31.5503z"/>
</g>
<line style="fill:none;stroke:#000000;stroke-width:16;stroke-miterlimit:10;" x1="314.87" y1="336.2" x2="314.87" y2="334.2"/>
<line style="fill:none;stroke:#000000;stroke-width:16;stroke-miterlimit:10;" x1="194.92" y1="336.2" x2="194.92" y2="334.2"/>
<polygon points="251.6485,218.4712 190.6767,219.5106 190.2532,194.6702 "/>
<polygon points="305.8456,217.5472 366.8175,216.5076 366.394,191.6673 "/>
<polygon points="220.735,260.1598 281.2678,248.0844 345.031,263.5624 "/>
<line style="fill:none;stroke:#000000;stroke-width:16;stroke-miterlimit:10;" x1="102.3555" y1="448.138" x2="194.9234" y2="334.1951"/>
<line style="fill:none;stroke:#000000;stroke-width:16;stroke-miterlimit:10;" x1="294.0693" y1="337.2036" x2="270.9057" y2="482.17"/>
<polygon style="fill:#DD5E5E;" points="120.6138,57.2552 382.7862,53.2915 385.1673,112.7372 122.8561,135.0941 "/>
<polygon style="fill:#DD5E5E;" points="123.831,143.4025 383.6991,119.8008 385.2944,133.3964 "/>
</svg>
