<?xml version="1.0" encoding="utf-8"?>
<!-- Generator: Adobe Illustrator 26.5.0, SVG Export Plug-In . SVG Version: 6.00 Build 0)  -->
<svg version="1.1" id="Layer_1" xmlns="http://www.w3.org/2000/svg" xmlns:xlink="http://www.w3.org/1999/xlink" x="0px" y="0px"
	 viewBox="0 0 500 500" style="enable-background:new 0 0 500 500;" xml:space="preserve">
<g id="Walk_2">
	<g>
		
			<rect x="101.5167" y="39.5597" transform="matrix(0.9965 -0.0832 0.0832 0.9965 -14.8168 21.4939)" style="fill:#FFFFFF;" width="297.9182" height="297.9177"/>
		<path d="M379.2447,36.3049l23.4695,280.9589l-280.9589,23.4695L98.2858,59.7743L379.2447,36.3049 M393.8573,19.0285
			L81.0094,45.1617l26.1333,312.8479l312.8479-26.1332L393.8573,19.0285L393.8573,19.0285z"/>
	</g>
	
		<line style="fill:none;stroke:#000000;stroke-width:16;stroke-miterlimit:10;" x1="196.336" y1="335.2057" x2="220.6132" y2="479.9898"/>
	
		<line style="fill:none;stroke:#000000;stroke-width:16;stroke-miterlimit:10;" x1="314.8685" y1="334.1951" x2="314.8685" y2="481.0004"/>
	<polygon points="254.5395,223.311 193.7705,228.3872 191.7024,203.6295 	"/>
	<polygon points="308.5564,218.7988 369.3254,213.7225 367.2573,188.9648 	"/>
	<polygon points="226.4556,266.9559 286.0554,250.8971 350.7039,262.1172 	"/>
</g>
<polygon style="fill:#DD5E5E;" points="107.0395,67.4898 368.1713,43.8207 375.0163,102.9191 115.1293,144.9397 "/>
<polygon style="fill:#DD5E5E;" points="116.7263,153.1513 374.0834,110.0731 376.6967,123.5102 "/>
</svg>
