<?xml version="1.0" encoding="utf-8"?>
<!-- Generator: Adobe Illustrator 26.5.0, SVG Export Plug-In . SVG Version: 6.00 Build 0)  -->
<svg version="1.1" id="Layer_1" xmlns="http://www.w3.org/2000/svg" xmlns:xlink="http://www.w3.org/1999/xlink" x="0px" y="0px"
	 viewBox="0 0 500 500" style="enable-background:new 0 0 500 500;" xml:space="preserve">
<g>
	
		<rect x="101.5258" y="39.5496" transform="matrix(0.0904 -0.9959 0.9959 0.0904 40.1032 420.9421)" style="fill:#FFFFFF;" width="297.9342" height="297.9347"/>
	<path d="M122.8552,35.3811l280.7827,25.4932L378.1447,341.657L97.3621,316.1639L122.8552,35.3811 M108.3675,18L79.9809,330.6516
		l312.6515,28.3866l28.3867-312.6515L108.3675,18L108.3675,18z"/>
</g>
<line style="fill:none;stroke:#000000;stroke-width:16;stroke-miterlimit:10;" x1="194.9234" y1="334.1951" x2="194.9234" y2="481.0004"/>
<line style="fill:none;stroke:#000000;stroke-width:16;stroke-miterlimit:10;" x1="294.0693" y1="337.2036" x2="335.6677" y2="477.992"/>
<polygon points="248.4592,223.4852 187.7284,217.9712 189.9748,193.229 "/>
<polygon points="302.4422,228.3865 363.1731,233.9004 365.4195,209.1582 "/>
<polygon points="213.2478,261.6132 274.7272,256.1079 336.4596,278.3436 "/>
<polygon style="fill:#DD5E5E;" points="129.9523,44.0915 390.8002,70.7086 386.2373,130.0268 123.1079,121.6614 "/>
<polygon style="fill:#DD5E5E;" points="123.1079,130.0268 383.9558,136.8712 383.9558,150.56 "/>
</svg>
