<?xml version="1.0" encoding="utf-8"?>
<!-- Generator: Adobe Illustrator 26.5.0, SVG Export Plug-In . SVG Version: 6.00 Build 0)  -->
<svg version="1.1" id="Layer_1" xmlns="http://www.w3.org/2000/svg" xmlns:xlink="http://www.w3.org/1999/xlink" x="0px" y="0px"
	 viewBox="0 0 500 500" style="enable-background:new 0 0 500 500;" xml:space="preserve">
<g id="Frame_1">
	<g>
		<rect x="101.5312" y="39.5503" style="fill:#FFFFFF;" width="297.9375" height="297.938"/>
		<path d="M391.4688,47.5503v281.9375H109.5312V47.5503H391.4688 M407.4688,31.5503H93.5312v313.9375h313.9376L407.4688,31.5503
			L407.4688,31.5503z"/>
	</g>
	<path d="M418.32,433.6478c-28.37,28.37-57.42,40.64-103.45,40.64v-144.8L418.32,433.6478z"/>
	<line style="fill:none;stroke:#000000;stroke-width:16;stroke-miterlimit:10;" x1="314.87" y1="336.2" x2="314.87" y2="334.2"/>
	<path d="M194.92,329.4878v144.8c-45.45,0-75.17-15.58-103.44-40.64L194.92,329.4878z"/>
	<line style="fill:none;stroke:#000000;stroke-width:16;stroke-miterlimit:10;" x1="194.92" y1="336.2" x2="194.92" y2="334.2"/>
	<polygon points="227.0439,223.5265 166.0632,223.5265 166.0632,198.6825 	"/>
	<polygon points="281.2489,223.5265 342.2296,223.5265 342.2296,198.6825 	"/>
	<polygon points="195.4243,264.6822 256.154,253.6404 319.6442,270.203 	"/>
</g>
</svg>
