<?xml version="1.0" encoding="utf-8"?>
<!-- Generator: Adobe Illustrator 26.5.1, SVG Export Plug-In . SVG Version: 6.00 Build 0)  -->
<svg version="1.1" id="Layer_1" xmlns="http://www.w3.org/2000/svg" xmlns:xlink="http://www.w3.org/1999/xlink" x="0px" y="0px"
	 viewBox="0 0 500 500" style="enable-background:new 0 0 500 500;" xml:space="preserve">
<g>
	<path style="fill:#6AC654;" d="M233.1629,37.5203C100.7088,83.307,178.5281,273.872,106.2395,352.1846
		C84.5136,375.721,42.9536,390.58,18.9052,412.8882c-14.2682,13.2357-4.7804,37.1333,14.6814,37.1333h416.7028
		c9.3977,0,17.7251-6.0913,20.4952-15.0715C512.4749,299.7983,447.3462-36.5183,233.1629,37.5203z"/>
	<path style="fill:#1E3517;" d="M450.2891,456.0215H33.5869c-11.3857,0-21.4346-6.8594-25.6006-17.4766
		c-4.2075-10.7227-1.5874-22.2393,6.8384-30.0557c11.688-10.8418,27.2471-19.9424,42.2939-28.7422
		c16.5757-9.6953,33.7163-19.7197,44.7124-31.6318c28.7715-31.1699,32.6235-81.3604,36.7012-134.498
		c2.8442-37.0566,5.7847-75.3745,17.8911-107.7129c13.9482-37.2583,38.4087-61.4819,74.7793-74.0547l1.9604,5.6709l-1.9604-5.6709
		c32.7876-11.3325,63.8501-13.7905,92.3218-7.3037c26.0684,5.9399,50.0615,19.3706,71.3135,39.9199
		c40.3779,39.043,70.6094,103.9692,85.124,182.8188c12.6777,68.8638,11.3574,141.4507-3.4434,189.4341
		C472.9561,448.2646,462.415,456.0215,450.2891,456.0215z M291.584,32.9658c-17.8936,0-36.7285,3.4043-56.4604,10.2256
		c-33.2349,11.4883-54.6709,32.7524-67.4619,66.9199c-11.5098,30.7456-14.3843,68.2017-17.1646,104.4243
		c-4.0552,52.8433-8.249,107.4858-39.8486,141.7183c-12.21,13.2275-30.1362,23.7119-47.4717,33.8516
		c-14.4878,8.4727-29.4688,17.2354-40.1909,27.1807c-5.6489,5.2402-5.6816,12.1533-3.8286,16.876
		c1.8706,4.7666,6.6436,9.8594,14.4297,9.8594h416.7021c6.8291,0,12.7627-4.3564,14.7627-10.8398
		c14.2656-46.248,15.457-116.6475,3.1084-183.7246c-14.0664-76.4111-43.0684-139.0454-81.6631-176.3643
		C358.8604,46.3696,327.0811,32.9658,291.584,32.9658z"/>
</g>
<g>
	<path style="fill:#8DD875;" d="M142.9992,410.3578c-14.4053,0-21.4172-17.3908-11.2026-27.5482
		c1.2198-1.213,2.4164-2.4529,3.5876-3.7217c39.5345-42.8281,44.1825-103.4003,48.6783-161.9776
		c6.4647-84.2476,14.6957-125.7304,62.0582-142.1032c16.0165-5.5364,31.2738-8.3433,45.3458-8.3433
		c34.7973,0,64.1215,16.8157,89.6523,51.4077c51.8937,70.3126,71.3196,197.9545,57.8339,278.9133
		c-1.2881,7.7324-8.008,13.373-15.847,13.373H142.9992z"/>
</g>
<g>
	<path style="fill:#B0EF9E;" d="M382.2256,115.3657c-2.1533,0.0005-4.2344-1.1621-5.3105-3.1982
		c-9.6719-18.3096-33.2246-31.8154-51.4229-29.4819c-3.293,0.4116-6.293-1.9033-6.7129-5.1904
		c-0.4209-3.2866,1.9023-6.292,5.1895-6.7129c23.0576-2.9463,51.5752,13.0986,63.5576,35.7798
		c1.5479,2.9302,0.4268,6.5601-2.5029,8.1079C384.1299,115.1421,383.1709,115.3657,382.2256,115.3657z"/>
</g>
<g>
	<path style="fill:#1E3517;" d="M261.7168,213.1987c-0.6543,0-1.3203-0.1079-1.9727-0.335
		c-3.1299-1.0898-4.7832-4.5103-3.6934-7.6396c3.5029-10.061,13.8164-18.4062,26.2734-21.2607
		c11.833-2.7109,22.8809-0.0093,30.3086,7.4141c2.3438,2.3428,2.3438,6.1416,0.001,8.4854
		c-2.3408,2.3433-6.1406,2.3442-8.4854,0.001c-4.4434-4.4414-11.4229-5.9712-19.1445-4.2036
		c-8.3955,1.9238-15.4766,7.353-17.6211,13.5103C266.5205,211.6465,264.1992,213.1987,261.7168,213.1987z"/>
</g>
<g>
	<path style="fill:#1E3517;" d="M385.6084,185.1206c-0.6152,0-1.2402-0.0952-1.8574-0.2959
		c-3.1504-1.0249-4.874-4.4102-3.8496-7.5615c3.2959-10.1313,13.4355-18.6875,25.8311-21.7979
		c11.7773-2.9551,22.877-0.481,30.4541,6.7871c2.3916,2.2939,2.4707,6.0923,0.1768,8.4834
		c-2.2949,2.3911-6.0918,2.4712-8.4834,0.1768c-4.5342-4.3486-11.542-5.7358-19.2266-3.8081
		c-8.3545,2.0962-15.3232,7.6704-17.3398,13.8706C390.4883,183.5098,388.1367,185.1206,385.6084,185.1206z"/>
</g>
<g>
	<path style="fill:#1E3517;" d="M356.5166,225.5815c-9.708,0-18.2002-7.1943-20.3086-17.2939
		c-0.6777-3.2437,1.4033-6.4224,4.6465-7.0996c3.252-0.6729,6.4229,1.4033,7.0996,4.6475c1.0879,5.208,5.2646,7.8296,8.7656,7.7432
		c4.2637-0.1128,7.4199-4.145,8.4443-10.7866c0.5049-3.2759,3.5791-5.5166,6.8438-5.0161c3.2754,0.5054,5.5205,3.5693,5.0156,6.8442
		c-2.3311,15.1221-11.8535,20.7393-19.9873,20.9541C356.8633,225.5791,356.6895,225.5815,356.5166,225.5815z"/>
</g>
<g>
	<path style="fill:#B0EF9E;" d="M409.9717,208.3423c-2.7812,0-5.2764-1.9443-5.8672-4.7749
		c-0.6777-3.2437,1.4033-6.4224,4.6465-7.0996l23.2959-4.8633c3.252-0.6709,6.4229,1.4038,7.0996,4.6475
		c0.6777,3.2437-1.4033,6.4224-4.6465,7.0996l-23.2959,4.8633C410.79,208.3008,410.3779,208.3423,409.9717,208.3423z"/>
</g>
<g>
	<path style="fill:#B0EF9E;" d="M270.1963,237.5225c-2.7812,0-5.2764-1.9443-5.8672-4.7749
		c-0.6777-3.2437,1.4033-6.4224,4.6465-7.0996l23.2959-4.8633c3.252-0.6733,6.4229,1.4038,7.0996,4.6475
		c0.6777,3.2437-1.4033,6.4224-4.6465,7.0996l-23.2959,4.8633C271.0146,237.481,270.6025,237.5225,270.1963,237.5225z"/>
</g>
</svg>
