<?xml version="1.0" encoding="utf-8"?>
<!-- Generator: Adobe Illustrator 26.5.0, SVG Export Plug-In . SVG Version: 6.00 Build 0)  -->
<svg version="1.1" id="Layer_1" xmlns="http://www.w3.org/2000/svg" xmlns:xlink="http://www.w3.org/1999/xlink" x="0px" y="0px"
	 viewBox="0 0 500 500" style="enable-background:new 0 0 500 500;" xml:space="preserve">
<g>
	
		<rect x="171.2663" y="174.8835" transform="matrix(1 -0.0068 0.0068 1 -2.2035 2.1938)" style="fill:#FFFFFF;" width="297.9326" height="297.933"/>
	<path d="M460.2386,181.9332l1.9189,281.9311l-281.9311,1.9189l-1.919-281.931L460.2386,181.9332 M476.1292,165.8247
		l-313.9304,2.1368l2.1368,313.9302l313.9302-2.1367L476.1292,165.8247L476.1292,165.8247z"/>
</g>
<line style="fill:none;stroke:#000000;stroke-width:16;stroke-miterlimit:10;" x1="169.8443" y1="282.7042" x2="28.1304" y2="244.377"/>
<line style="fill:none;stroke:#000000;stroke-width:16;stroke-miterlimit:10;" x1="176.4868" y1="381.673" x2="29.776" y2="386.9409"/>
<polygon points="285.2336,325.2257 284.8185,264.2465 309.6619,264.0774 "/>
<polygon points="285.6025,379.4295 286.0176,440.4088 310.861,440.2397 "/>
<polygon points="243.8636,293.887 255.3185,354.5402 239.1883,418.1416 "/>
<polygon style="fill:#DD5E5E;" points="452.2592,189.8433 451.122,452.0432 391.6411,453.2675 374.3914,190.5709 "/>
<polygon style="fill:#DD5E5E;" points="366.0656,191.384 384.6074,451.6621 370.9834,452.9926 "/>
</svg>
